<svg width="995" height="227" viewBox="0 0 995 227" fill="none" xmlns="http://www.w3.org/2000/svg">
<rect width="995" height="227" fill="url(#paint0_linear)"/>
<g clip-path="url(#clip0)">
<path d="M480.991 149.398H521.544V179.32H480.991V149.398Z" fill="#1F1835"/>
<path d="M501.26 149.398H521.544V179.32H501.26V149.398Z" fill="#1F1835"/>
<path d="M557.276 151.097H445.259C440.177 151.097 436.057 146.973 436.057 141.885V56.289C436.057 51.2012 440.177 47.0768 445.259 47.0768H557.276C562.358 47.0768 566.478 51.2012 566.478 56.289V141.885C566.478 146.972 562.358 151.097 557.276 151.097Z" fill="#F4F1F1"/>
<path d="M557.276 47.0768H501.26V151.097H557.276C562.358 151.097 566.478 146.973 566.478 141.885V56.289C566.478 51.2012 562.358 47.0768 557.276 47.0768V47.0768Z" fill="#DAEAEC"/>
<path d="M533.359 173.558H469.176C466.935 173.558 465.119 175.377 465.119 177.62C465.119 179.864 466.935 181.682 469.176 181.682H533.358C535.599 181.682 537.416 179.864 537.416 177.62C537.416 175.377 535.599 173.558 533.359 173.558V173.558Z" fill="#1F1835"/>
<path d="M436.104 145.567C436.104 147.887 438.549 149.775 441.554 149.775H560.226C563.231 149.775 565.676 147.887 565.676 145.567V130.396H436.104V145.567Z" fill="#1F1835"/>
<path d="M533.359 173.558H501.26V181.682H533.359C535.599 181.682 537.416 179.864 537.416 177.62C537.416 175.377 535.599 173.558 533.359 173.558V173.558Z" fill="#1F1835"/>
<path d="M531.342 109.984C529.102 109.984 527.285 108.165 527.285 105.922V89.1481C527.285 86.9049 529.102 85.0863 531.342 85.0863C533.583 85.0863 535.399 86.9049 535.399 89.1481V105.922C535.399 108.165 533.583 109.984 531.342 109.984Z" fill="#FFDA2D"/>
<path d="M524.181 101.86H519.868V94.4502C519.868 92.207 518.052 90.3884 515.811 90.3884C513.571 90.3884 511.754 92.207 511.754 94.4502V105.922C511.754 108.165 513.571 109.984 515.811 109.984H524.181V101.86Z" fill="#E20059"/>
<path d="M546.873 71.3738C544.633 71.3738 542.816 73.1925 542.816 75.4357V101.86H542.509V109.984H546.873C549.114 109.984 550.93 108.165 550.93 105.922V75.4357C550.93 73.1925 549.114 71.3738 546.873 71.3738V71.3738Z" fill="#4D2EE6"/>
<path d="M548.963 109.984H513.73C512.639 109.984 511.754 109.099 511.754 108.006V101.822H550.939V108.006C550.939 109.099 550.054 109.984 548.963 109.984V109.984Z" fill="#1F1835"/>
<path d="M501.128 149.775H560.226C563.232 149.775 565.676 147.887 565.676 145.567V130.397H501.128V149.775Z" fill="#1F1835"/>
<path d="M557.276 155.159H445.259C437.948 155.159 432 149.204 432 141.885V56.289C432 48.9698 437.948 43.0149 445.259 43.0149H557.276C564.587 43.0149 570.535 48.9695 570.535 56.289V141.885C570.535 149.204 564.587 155.159 557.276 155.159V155.159ZM445.259 51.1386C442.422 51.1386 440.114 53.4489 440.114 56.289V141.885C440.114 144.725 442.422 147.035 445.259 147.035H557.276C560.113 147.035 562.421 144.725 562.421 141.885V56.289C562.421 53.4492 560.113 51.1386 557.276 51.1386H445.259Z" fill="#1F1835"/>
<path d="M557.276 43.0149H501.26V51.1386H557.276C560.113 51.1386 562.421 53.4489 562.421 56.289V141.885C562.421 144.725 560.113 147.035 557.276 147.035H501.26V155.159H557.276C564.587 155.159 570.535 149.204 570.535 141.885V56.289C570.535 48.9698 564.587 43.0149 557.276 43.0149V43.0149Z" fill="#1F1835"/>
<path d="M490.052 108.616C490.014 108.738 489.964 108.855 489.904 108.965C489.964 108.855 490.014 108.738 490.052 108.616Z" fill="#FFB64C"/>
<path d="M467.018 72.6248V71.7682H452.955C451.881 71.7682 451.011 72.6399 451.011 73.715V108.038C451.011 109.113 451.881 109.985 452.955 109.985H470.58V72.6248H467.018Z" fill="#FDBF00"/>
<path d="M489.904 108.965C489.845 109.076 489.774 109.18 489.695 109.276C489.774 109.18 489.844 109.076 489.904 108.965Z" fill="#FFB64C"/>
<path d="M489.121 109.749C489.342 109.629 489.537 109.468 489.695 109.276C489.537 109.468 489.342 109.629 489.121 109.749Z" fill="#FFB64C"/>
<path d="M488.195 109.984C488.463 109.984 488.719 109.93 488.951 109.831C488.719 109.93 488.463 109.984 488.195 109.984Z" fill="#FF8700"/>
<path d="M488.195 71.7675C488.463 71.7675 488.719 71.8219 488.951 71.9205C488.719 71.8219 488.463 71.7675 488.195 71.7675Z" fill="#FF8700"/>
<path d="M488.951 71.9205C488.719 71.8219 488.463 71.7675 488.195 71.7675H474.123V72.624H470.58V109.984H488.195C488.463 109.984 488.719 109.93 488.951 109.831C489.009 109.807 489.066 109.779 489.121 109.749C489.342 109.629 489.536 109.468 489.695 109.276C489.774 109.18 489.844 109.076 489.904 108.966C489.964 108.855 490.014 108.738 490.052 108.616C490.108 108.434 490.139 108.239 490.139 108.038V73.7142C490.139 72.9078 489.649 72.2159 488.951 71.9205V71.9205Z" fill="#FF9100"/>
<path d="M470.58 87.2883C468.613 87.2883 467.018 85.6915 467.018 83.722V71.7675H474.143V83.722C474.142 85.6915 472.547 87.2883 470.58 87.2883V87.2883Z" fill="#FFE470"/>
<path d="M474.142 83.7218V71.7673H470.58V87.2881C472.547 87.2883 474.142 85.6915 474.142 83.7218V83.7218Z" fill="#FFDA2D"/>
<g clip-path="url(#clip1)">
<path d="M448.878 49.7045H552.965C559.352 49.7045 564.531 53.722 564.531 58.6777V139.435C564.531 144.391 559.352 148.408 552.965 148.408H448.878C442.491 148.408 437.312 144.391 437.312 139.435V58.6777C437.312 53.722 442.491 49.7045 448.878 49.7045Z" fill="#ECE8F5"/>
<path d="M443.095 67.6516H558.748C561.942 67.6516 564.531 69.6602 564.531 72.138V72.1383C564.531 74.6161 561.942 76.6248 558.748 76.6248H443.095C439.902 76.6248 437.313 74.6161 437.313 72.1383V72.138C437.313 69.6602 439.902 67.6516 443.095 67.6516Z" fill="#53379C"/>
<path d="M437.313 67.6509H500.922V148.409H448.878C442.491 148.409 437.313 144.392 437.313 139.436V67.6509Z" fill="black"/>
<path d="M443.096 76.6239H500.922V67.6509H443.096C439.902 67.6498 437.312 69.6578 437.311 72.1357C437.309 74.6135 439.897 76.623 443.091 76.6239C443.093 76.6239 443.094 76.6239 443.096 76.6239Z" fill="#53379C"/>
<path d="M448.878 49.7045H552.966C559.353 49.7045 564.532 53.722 564.532 58.6777V72.1374H437.312V58.6777C437.312 53.722 442.491 49.7045 448.878 49.7045Z" fill="black"/>
<path d="M448.878 49.7045H552.968C556.161 49.7045 558.75 51.7132 558.75 54.191V54.1912C558.75 56.6691 556.161 58.6777 552.968 58.6777H448.878C445.685 58.6777 443.096 56.6691 443.096 54.1912V54.191C443.096 51.7132 445.685 49.7045 448.878 49.7045Z" fill="#53379C"/>
<path d="M445.987 67.6516H555.859C557.456 67.6516 558.75 68.656 558.75 69.8949C558.75 71.1338 557.456 72.1383 555.859 72.1383H445.987C444.39 72.1383 443.096 71.1338 443.096 69.8949C443.096 68.656 444.39 67.6516 445.987 67.6516Z" fill="#53379C"/>
<path d="M561.641 81.1106C560.044 81.1106 558.749 82.1148 558.749 83.3537C558.749 83.3537 558.749 83.3537 558.749 83.3539V139.436C558.749 141.914 556.16 143.923 552.967 143.923H521.162C519.565 143.923 518.271 144.927 518.271 146.166C518.271 147.405 519.565 148.409 521.162 148.409H552.967C559.354 148.409 564.532 144.392 564.532 139.436V83.3537C564.532 82.1148 563.237 81.1106 561.641 81.1106Z" fill="#D9C9EF"/>
<path d="M440.204 90.0829C441.801 90.0829 443.095 91.0874 443.095 92.3263V128.219C443.095 129.458 441.801 130.462 440.204 130.462C438.607 130.462 437.312 129.458 437.312 128.219V92.3263C437.313 91.0874 438.607 90.0829 440.204 90.0829Z" fill="#53379C"/>
<path d="M451.77 63.1651C453.367 63.1651 454.662 62.1607 454.662 60.9217C454.662 59.6827 453.367 58.6783 451.77 58.6783C450.173 58.6783 448.879 59.6827 448.879 60.9217C448.879 62.1607 450.173 63.1651 451.77 63.1651Z" fill="#FCA5D2"/>
<path d="M463.334 63.1651C464.931 63.1651 466.225 62.1607 466.225 60.9217C466.225 59.6827 464.931 58.6783 463.334 58.6783C461.737 58.6783 460.442 59.6827 460.442 60.9217C460.442 62.1607 461.737 63.1651 463.334 63.1651Z" fill="#D5CBEB"/>
<path d="M474.9 63.1651C476.497 63.1651 477.792 62.1607 477.792 60.9217C477.792 59.6827 476.497 58.6783 474.9 58.6783C473.303 58.6783 472.009 59.6827 472.009 60.9217C472.009 62.1607 473.303 63.1651 474.9 63.1651Z" fill="#FF8282"/>
<path d="M451.77 108.031H457.552C459.149 108.031 460.444 109.035 460.444 110.274C460.444 111.513 459.149 112.517 457.552 112.517H451.77C450.173 112.517 448.878 111.513 448.878 110.274C448.878 109.035 450.173 108.031 451.77 108.031Z" fill="#FF8282"/>
<path d="M451.77 117.002H457.552C459.149 117.002 460.444 118.007 460.444 119.246C460.444 120.485 459.149 121.489 457.552 121.489H451.77C450.173 121.489 448.878 120.485 448.878 119.246C448.878 118.007 450.173 117.002 451.77 117.002Z" fill="#FF8282"/>
<path d="M451.77 125.976H457.552C459.149 125.976 460.444 126.981 460.444 128.22C460.444 129.458 459.149 130.463 457.552 130.463H451.77C450.173 130.463 448.878 129.458 448.878 128.22C448.878 126.981 450.173 125.976 451.77 125.976Z" fill="#FF8282"/>
<path d="M451.77 134.95H457.552C459.149 134.95 460.444 135.954 460.444 137.193C460.444 138.432 459.149 139.437 457.552 139.437H451.77C450.173 139.437 448.878 138.432 448.878 137.193C448.878 135.954 450.173 134.95 451.77 134.95Z" fill="#FF8282"/>
<path d="M451.77 99.0568H457.552C459.149 99.0568 460.444 100.061 460.444 101.3C460.444 102.539 459.149 103.544 457.552 103.544H451.77C450.173 103.544 448.878 102.539 448.878 101.3C448.878 100.061 450.173 99.0568 451.77 99.0568Z" fill="#FF8282"/>
<path d="M451.77 90.0829H457.552C459.149 90.0829 460.444 91.0874 460.444 92.3263C460.444 93.5652 459.149 94.5696 457.552 94.5696H451.77C450.173 94.5696 448.878 93.5652 448.878 92.3263C448.878 91.0874 450.173 90.0829 451.77 90.0829Z" fill="#FF8282"/>
<path d="M451.77 81.1113H457.552C459.149 81.1113 460.444 82.1157 460.444 83.3546C460.444 84.5935 459.149 85.598 457.552 85.598H451.77C450.173 85.598 448.878 84.5935 448.878 83.3546C448.878 82.1157 450.173 81.1113 451.77 81.1113Z" fill="#FF8282"/>
<path d="M469.118 108.031H474.9C476.497 108.031 477.792 109.035 477.792 110.274C477.792 111.513 476.497 112.517 474.9 112.517H469.118C467.521 112.517 466.226 111.513 466.226 110.274C466.226 109.035 467.521 108.031 469.118 108.031Z" fill="#FCA5D2"/>
<path d="M469.118 117.002H480.683C482.28 117.002 483.574 118.007 483.574 119.246C483.574 120.485 482.28 121.489 480.683 121.489H469.118C467.521 121.489 466.226 120.485 466.226 119.246C466.226 118.007 467.521 117.002 469.118 117.002Z" fill="#D5CBEB"/>
<path d="M469.118 125.976H474.9C476.497 125.976 477.792 126.981 477.792 128.219C477.792 129.458 476.497 130.463 474.9 130.463H469.118C467.521 130.463 466.226 129.458 466.226 128.219C466.226 126.981 467.521 125.976 469.118 125.976Z" fill="#D5CBEB"/>
<path d="M469.118 134.95H474.9C476.497 134.95 477.792 135.954 477.792 137.193C477.792 138.432 476.497 139.437 474.9 139.437H469.118C467.521 139.437 466.226 138.432 466.226 137.193C466.226 135.954 467.521 134.95 469.118 134.95Z" fill="#D5CBEB"/>
<path d="M469.118 99.0568H474.9C476.497 99.0568 477.792 100.061 477.792 101.3C477.792 102.539 476.497 103.543 474.9 103.543H469.118C467.521 103.543 466.226 102.539 466.226 101.3C466.226 100.061 467.521 99.0568 469.118 99.0568Z" fill="#D5CBEB"/>
<path d="M486.465 99.0568C488.062 99.0568 489.357 100.061 489.357 101.3C489.357 102.539 488.062 103.543 486.465 103.543C484.869 103.543 483.574 102.539 483.574 101.3C483.574 100.061 484.869 99.0568 486.465 99.0568Z" fill="#D5CBEB"/>
<path d="M469.118 90.0829H486.464C488.061 90.0829 489.356 91.0874 489.356 92.3263C489.356 93.5652 488.061 94.5697 486.464 94.5697H469.118C467.521 94.5697 466.226 93.5652 466.226 92.3263C466.226 91.0874 467.521 90.0829 469.118 90.0829Z" fill="#D5CBEB"/>
<path d="M469.118 81.1112H480.683C482.28 81.1112 483.574 82.1156 483.574 83.3546C483.574 84.5935 482.28 85.5979 480.683 85.5979H469.118C467.521 85.5979 466.226 84.5935 466.226 83.3546C466.226 82.1156 467.521 81.1112 469.118 81.1112Z" fill="#D5CBEB"/>
<path d="M518.271 112.516H547.184C550.377 112.516 552.966 114.525 552.966 117.003V125.976C552.966 128.453 550.377 130.462 547.184 130.462H518.271C515.077 130.462 512.489 128.453 512.489 125.976V117.003C512.489 114.525 515.077 112.516 518.271 112.516Z" fill="#B39DDD"/>
<path d="M515.38 134.95H532.727C534.324 134.95 535.618 135.954 535.618 137.193C535.618 138.432 534.324 139.437 532.727 139.437H515.38C513.783 139.437 512.489 138.432 512.489 137.193C512.489 135.954 513.783 134.95 515.38 134.95Z" fill="#B39DDD"/>
<path d="M544.292 134.95H550.074C551.671 134.95 552.966 135.954 552.966 137.193C552.966 138.432 551.671 139.437 550.074 139.437H544.292C542.695 139.437 541.4 138.432 541.4 137.193C541.4 135.954 542.695 134.95 544.292 134.95Z" fill="#B39DDD"/>
<path d="M518.271 81.1112H547.184C550.377 81.1112 552.966 83.1199 552.966 85.5977V94.5703C552.966 97.0481 550.377 99.0568 547.184 99.0568H518.271C515.077 99.0568 512.489 97.0481 512.489 94.5703V85.5977C512.489 83.1199 515.077 81.1112 518.271 81.1112Z" fill="#B39DDD"/>
<path d="M515.38 103.543H532.727C534.324 103.543 535.618 104.547 535.618 105.786C535.618 107.025 534.324 108.029 532.727 108.029H515.38C513.783 108.029 512.489 107.025 512.489 105.786C512.489 104.547 513.783 103.543 515.38 103.543Z" fill="#B39DDD"/>
<path d="M544.292 103.543H550.074C551.671 103.543 552.966 104.547 552.966 105.786C552.966 107.025 551.671 108.029 550.074 108.029H544.292C542.695 108.029 541.4 107.025 541.4 105.786C541.4 104.547 542.695 103.543 544.292 103.543Z" fill="#B39DDD"/>
</g>
</g>
<path d="M592.447 64.8424C592.447 64.8424 591.933 65.4019 592.814 66.4844C593.694 67.5669 592.983 69.9159 591.31 69.9757C589.637 70.0356 588.826 70.7012 589.229 71.5779C589.633 72.4547 590.117 74.5381 588.295 74.2213C586.474 73.9045 585.898 74.5935 586.22 75.1231C586.543 75.6526 585.408 74.07 585.408 74.07C585.408 74.07 584.393 75.5068 583.147 74.501C581.901 73.4952 581.405 64.378 583.945 64.2235C586.486 64.069 592.447 64.8424 592.447 64.8424Z" fill="#2F2E41"/>
<path d="M579.569 108.2L578.99 112.049H576.385L577.253 107.65L579.569 108.2Z" fill="#9F616A"/>
<path d="M576.095 109.712C576.095 109.712 572.622 112.736 573.49 113.011C574.359 113.286 577.543 116.586 578.121 116.861C578.639 117.107 584.2 118.786 583.331 116.861C582.463 114.936 580.437 113.836 580.437 113.836L579.858 110.537L576.095 109.712Z" fill="#F2F2F2"/>
<path opacity="0.1" d="M576.095 109.712C576.095 109.712 572.622 112.736 573.49 113.011C574.359 113.286 577.543 116.586 578.121 116.861C578.639 117.107 584.2 118.786 583.331 116.861C582.463 114.936 580.437 113.836 580.437 113.836L579.858 110.537L576.095 109.712Z" fill="black"/>
<path d="M576.095 105.312L575.516 109.162H572.911L573.78 104.763L576.095 105.312Z" fill="#9F616A"/>
<path d="M586.98 95.0941L583.187 83.1782C583.187 83.1782 589.554 77.6789 585.213 76.0292C580.871 74.3794 579.713 82.6282 579.713 82.6282L581.16 96.9262H586.949L586.98 95.0941Z" fill="#FFB8B8"/>
<path d="M578.121 86.3402C578.121 86.3402 585.602 95.4549 584.467 96.8092C583.332 98.1635 581.305 106.412 581.305 106.412C581.305 106.412 581.595 109.712 580.437 109.712C579.279 109.712 576.385 109.162 576.385 108.337C576.385 107.512 578.99 97.0637 578.99 97.0637L571.464 87.715L578.121 86.3402Z" fill="#FF8282"/>
<path d="M577.542 86.8902L570.017 83.0407C570.017 83.0407 564.807 85.5154 566.254 87.715C567.701 89.9147 574.358 95.6889 574.358 95.6889C574.358 95.6889 572.332 105.038 572.622 105.313C572.911 105.587 576.095 106.687 576.963 106.412C577.832 106.137 582.463 95.4139 581.305 94.864C580.147 94.3141 576.384 88.5399 576.384 88.5399L577.542 86.8902Z" fill="#FF8282"/>
<path d="M598.093 187.801C598.093 187.801 592.883 190.825 592.304 190.825C591.725 190.825 583.91 192.75 587.384 194.125C590.857 195.5 604.172 193.575 603.882 192.75C603.593 191.925 603.882 186.976 603.303 186.976C602.724 186.976 598.093 187.801 598.093 187.801Z" fill="#2F2E41"/>
<path d="M592.304 191.65C592.304 191.65 587.094 194.675 586.515 194.675C585.936 194.675 578.121 196.599 581.595 197.974C585.068 199.349 598.383 197.424 598.093 196.599C597.804 195.775 598.093 190.825 597.514 190.825C596.935 190.825 592.304 191.65 592.304 191.65Z" fill="#2F2E41"/>
<path d="M597.804 133.359C597.804 133.359 596.935 137.483 595.488 140.508C594.041 143.532 595.778 157.83 596.646 160.03C597.514 162.229 605.908 188.351 603.303 188.626C600.698 188.901 595.488 188.626 595.488 188.626L587.094 163.604L588.541 130.059L597.804 133.359Z" fill="#575A88"/>
<path opacity="0.1" d="M597.804 133.359C597.804 133.359 596.935 137.483 595.488 140.508C594.041 143.532 595.778 157.83 596.646 160.03C597.514 162.229 605.908 188.351 603.303 188.626C600.698 188.901 595.488 188.626 595.488 188.626L587.094 163.604L588.541 130.059L597.804 133.359Z" fill="black"/>
<path d="M596.067 133.633C596.067 133.633 594.909 141.057 592.304 142.707C589.699 144.357 590.568 146.007 590.568 146.007L591.725 160.58C591.725 160.58 603.014 186.976 599.541 190.275C596.067 193.575 592.883 192.2 591.436 191.925C589.989 191.65 587.384 185.876 588.831 184.226C590.278 182.576 585.936 172.678 584.779 171.028C583.621 169.378 584.779 167.179 583.331 166.629C581.884 166.079 578.7 162.504 578.7 160.03C578.7 157.555 574.648 131.159 577.253 129.509C579.858 127.859 596.556 132.914 596.556 132.914L596.067 133.633Z" fill="#575A88"/>
<path d="M601.567 95.139C598.05 95.139 595.199 92.4307 595.199 89.0898C595.199 85.749 598.05 83.0407 601.567 83.0407C605.084 83.0407 607.935 85.749 607.935 89.0898C607.935 92.4307 605.084 95.139 601.567 95.139Z" fill="#FFB8B8"/>
<path d="M587.094 72.0423C584.217 72.0423 581.884 69.8264 581.884 67.093C581.884 64.3596 584.217 62.1437 587.094 62.1437C589.972 62.1437 592.304 64.3596 592.304 67.093C592.304 69.8264 589.972 72.0423 587.094 72.0423Z" fill="#9F616A"/>
<path d="M597.225 89.0898C597.225 89.0898 593.752 95.139 592.015 95.139C590.278 95.139 598.962 101.463 598.962 101.463C598.962 101.463 601.856 93.4892 602.435 93.2143C603.014 92.9393 597.225 89.0898 597.225 89.0898Z" fill="#FFB8B8"/>
<path d="M596.067 94.589C596.067 94.589 603.593 97.0637 603.303 97.8886C603.014 98.7134 605.33 100.638 605.33 101.463C605.33 102.288 605.908 109.712 602.435 115.761C598.962 121.81 593.462 126.21 596.067 128.959C598.672 131.709 602.725 136.383 598.383 136.383C594.041 136.383 587.094 130.334 580.726 132.534C574.359 134.733 575.806 126.484 575.806 126.484C575.806 126.484 574.937 120.16 576.674 118.236C578.411 116.311 584.489 102.563 584.489 100.913C584.489 99.2634 590.278 92.9393 591.725 92.9393C593.173 92.9393 596.067 94.589 596.067 94.589Z" fill="#8985A8"/>
<path d="M585.647 70.1176C585.647 70.1176 583.29 74.3746 583.166 75.1332C583.042 75.8918 578.99 70.1176 578.99 70.1176L583.621 67.093L585.647 70.1176Z" fill="#9F616A"/>
<path d="M584.779 73.4171L579.858 68.4678L574.069 70.9424C574.069 70.9424 568.67 82.2158 568.33 83.0407C567.991 83.8656 576.964 87.715 577.832 87.715C578.7 87.715 584.779 79.1912 584.779 79.1912C584.779 79.1912 586.226 75.0668 584.779 73.4171Z" fill="#F2F2F2"/>
<path d="M587.094 80.0161V84.9655H583.621L584.763 80.0161H587.094Z" fill="#9F616A"/>
<path d="M585.112 83.7281C585.551 83.7225 585.982 83.8441 586.346 84.0767C586.71 84.3093 586.991 84.6419 587.151 85.0301C587.378 85.6114 587.301 86.2224 586.226 86.4777C583.91 87.0276 583.621 86.4777 583.621 86.4777C583.621 86.4777 579.601 85.9278 580.453 84.8279C581.305 83.7281 583.621 83.7281 583.621 83.7281H585.112Z" fill="#9F616A"/>
<path d="M572.622 107.512C572.622 107.512 569.148 110.537 570.017 110.812C570.885 111.087 574.069 114.386 574.648 114.661C575.166 114.907 580.726 116.586 579.858 114.661C578.99 112.736 576.964 111.637 576.964 111.637L576.385 108.337L572.622 107.512Z" fill="#F2F2F2"/>
<path d="M603.835 84.4335C603.437 84.2117 602.967 83.9355 602.955 83.497C602.966 83.3359 603.025 83.1812 603.127 83.0518C603.229 82.9224 603.368 82.8241 603.527 82.7688C603.849 82.6636 604.189 82.62 604.528 82.6408C604.658 82.6345 604.788 82.6467 604.914 82.6772C605.244 82.7738 605.434 83.0918 605.694 83.3076C606.071 83.621 606.59 83.7131 607.075 83.8326C607.888 84.0328 608.667 84.3396 609.39 84.744C609.533 84.8127 609.658 84.9105 609.757 85.0304C609.871 85.2513 609.921 85.4967 609.904 85.7421C609.969 86.675 610.558 87.4871 610.998 88.3236C611.437 89.1602 611.726 90.2023 611.21 90.9985C611.005 91.2463 610.814 91.504 610.638 91.7705C610.272 92.4943 610.728 93.3854 610.464 94.148C610.346 94.4481 610.156 94.7183 609.91 94.9373C609.402 95.4236 608.775 95.7838 608.086 95.9863C607.428 96.1787 606.612 96.3069 606.355 96.9132C606.244 97.1732 606.267 97.4797 606.111 97.7178C605.918 98.0129 605.52 98.1082 605.16 98.1711C604.756 98.2588 604.341 98.2874 603.928 98.2558C603.721 98.2388 603.521 98.1822 603.338 98.0893C603.155 97.9964 602.994 97.8692 602.865 97.7154C602.748 97.4983 602.604 97.2958 602.435 97.1125C602.016 96.7798 601.379 97.0426 600.841 96.9545C600.623 96.9154 600.421 96.818 600.259 96.6737C600.097 96.5294 599.982 96.3442 599.927 96.1399C599.913 95.9223 599.849 95.7102 599.742 95.5175C599.408 95.1111 598.528 95.398 598.307 94.9268C598.164 94.6207 598.464 94.2972 598.754 94.1066C599.227 93.7958 599.756 93.5567 600.18 93.1877C600.604 92.8188 600.918 92.2668 600.786 91.7352C600.586 90.9379 599.491 90.499 599.454 89.6803C599.433 89.2113 599.788 88.7998 600.185 88.5205C600.583 88.2412 601.043 88.0406 601.398 87.7141C601.657 87.4754 601.853 87.1759 602.135 86.9617C602.645 86.5742 603.343 86.5272 603.993 86.4638C604.342 86.4299 605.732 86.2769 605.677 85.7726C605.632 85.3537 604.189 84.6304 603.835 84.4335Z" fill="#2F2E41"/>
<path d="M584.779 73.1421C584.779 73.1421 587.962 74.2419 587.962 75.6167C587.962 76.9915 589.41 81.3909 587.962 81.3909C586.515 81.3909 583.621 80.3355 583.621 80.3355L584.779 73.1421Z" fill="#F2F2F2"/>
<path d="M585.647 92.9393C585.647 92.9393 577.253 90.1897 576.964 90.1897C576.674 90.1897 572.622 87.99 572.911 87.1651L574.069 80.2911C574.069 80.2911 578.7 71.2174 575.516 71.2174C572.332 71.2174 570.596 78.3664 570.596 78.3664C570.596 78.3664 563.649 90.7396 567.412 93.4892C571.175 96.2388 586.805 101.188 587.673 100.363C588.542 99.5384 585.647 92.9393 585.647 92.9393Z" fill="#FFB8B8"/>
<path d="M577.542 75.0669L575.589 76.8554L578.121 79.1913C578.121 79.1913 581.595 77.8165 581.305 78.6413C581.016 79.4662 579.279 81.9409 578.121 81.9409C576.963 81.9409 570.938 78.3664 570.911 77.2665C570.885 76.1667 574.648 72.3173 575.516 72.0423C576.385 71.7673 577.542 75.0669 577.542 75.0669Z" fill="#9F616A"/>
<path d="M581.216 73.1502C581.216 73.1502 576.963 76.7166 576.385 76.7166C575.806 76.7166 574.753 71.3582 574.753 71.3582C574.753 71.3582 578.184 69.2344 579.455 69.8135C580.726 70.3925 581.216 73.1502 581.216 73.1502Z" fill="#F2F2F2"/>
<path d="M596.067 96.2388C596.067 96.2388 596.067 92.3893 587.384 92.3893H583.621L585.358 101.463L591.147 103.113L596.067 96.2388Z" fill="#8985A8"/>
<path d="M577.099 65.087C577.95 65.0831 578.8 65.0333 579.645 64.9379C580.309 63.4143 581.154 62.1359 582.069 61.6593C582.718 61.1077 583.719 60.7068 584.504 60.3898C586.433 59.6115 589.643 60.097 589.831 60.9822C593.626 62.7047 592.667 65.7299 592.667 65.7299C592.077 66.9139 590.754 66.3891 589.632 65.8529C589.345 66.7113 588.668 67.4397 587.699 67.4743C585.846 67.5406 584.947 68.278 585.394 69.2493C585.841 70.2206 586.378 72.5286 584.36 72.1776C582.341 71.8267 581.703 72.59 582.061 73.1766C582.418 73.7633 581.161 72.01 581.161 72.01C581.161 72.01 580.036 73.6016 578.656 72.4874C578.516 72.3597 578.417 72.1977 578.368 72.0194C577.726 72.2819 577.218 72.3815 576.929 72.2588C575.276 71.556 576.302 69.9058 576.302 69.9058C576.302 69.9058 574.095 69.5841 574.806 69.6374C575.518 69.6908 575.968 68.8149 574.764 67.2364C573.56 65.6578 575.984 65.1229 577.099 65.087Z" fill="#2F2E41"/>
<path d="M588.297 63.8495L589.121 63.5891L589.944 65.9371L589.12 66.1976L588.297 63.8495Z" fill="#FF8282"/>
<path d="M645.315 97.2476C645.315 97.2476 644.987 98.3415 646.845 99.3261C648.702 100.311 649.249 104.03 647.063 105.124C644.878 106.218 644.222 107.64 645.315 108.625C646.408 109.61 648.374 112.235 645.752 112.892C643.129 113.548 642.802 114.861 643.567 115.408C644.331 115.955 641.818 114.423 641.818 114.423C641.818 114.423 641.381 117.049 639.086 116.392C636.792 115.736 630.345 103.265 633.623 101.514C636.901 99.7637 645.315 97.2476 645.315 97.2476Z" fill="#2F2E41"/>
<path d="M636.848 189.994L637.558 196.632L634.48 198.529L631.638 198.055L633.059 189.994H636.848Z" fill="#9F616A"/>
<path d="M639.216 110.334C642.878 110.334 645.847 107.362 645.847 103.695C645.847 100.029 642.878 97.0571 639.216 97.0571C635.554 97.0571 632.586 100.029 632.586 103.695C632.586 107.362 635.554 110.334 639.216 110.334Z" fill="#9F616A"/>
<path d="M641.466 106.896C641.466 106.896 642.058 116.972 642.768 116.972C643.479 116.972 634.48 116.498 634.48 116.498C634.48 116.498 638.269 109.86 636.374 107.726C634.48 105.592 641.466 106.896 641.466 106.896Z" fill="#9F616A"/>
<path d="M631.638 160.121L634.717 171.975L632.349 192.128L637.795 191.653L639.927 160.121H631.638Z" fill="#2F2E41"/>
<path opacity="0.2" d="M631.638 160.121L634.717 171.975L632.349 192.128L637.795 191.653L639.927 160.121H631.638Z" fill="black"/>
<path d="M636.374 195.447C636.374 195.447 636.611 194.024 638.979 195.447C641.347 196.869 651.293 201.374 646.083 202.322C640.874 203.27 630.217 201.137 630.217 200.425C630.217 199.714 629.981 195.21 630.928 195.684C631.875 196.158 634.954 199.24 636.374 195.447Z" fill="#2F2E41"/>
<path d="M633.296 193.787C633.296 193.787 629.507 199.714 629.27 201.374C629.034 203.033 625.481 197.58 625.481 197.58L628.797 191.416L633.296 193.787Z" fill="#9F616A"/>
<path d="M645.847 161.07L641.584 175.295C641.584 175.295 634.006 195.447 633.533 195.21C633.059 194.973 627.376 193.55 627.139 192.839C626.902 192.128 634.243 172.924 634.243 172.924L635.19 160.595L645.847 161.07Z" fill="#2F2E41"/>
<path d="M624.771 196.632C625.418 196.588 626.062 196.746 626.614 197.087C627.166 197.427 627.598 197.931 627.849 198.529C628.797 200.663 629.981 200.9 630.218 201.137C630.454 201.374 629.507 206.353 630.218 206.827C630.928 207.301 631.638 212.28 629.27 212.28C626.902 212.28 623.113 209.672 623.35 209.198C623.587 208.723 623.587 205.404 622.877 203.982C622.166 202.559 620.982 200.188 622.877 198.766C624.771 197.343 624.771 196.632 624.771 196.632Z" fill="#2F2E41"/>
<path d="M647.268 139.021L647.741 143.288C647.741 143.288 651.293 146.845 652.477 151.112C653.661 155.38 663.37 162.492 660.529 163.44C657.687 164.389 654.372 164.863 646.084 163.44C637.795 162.018 624.771 165.1 624.771 157.276C624.771 157.276 623.113 155.143 621.929 158.225C621.095 160.33 620.147 162.388 619.088 164.389C619.088 164.389 616.246 159.41 617.193 157.276C618.141 155.143 617.193 155.38 618.377 153.009C619.561 150.638 625.482 141.866 627.85 141.392C630.218 140.918 634.717 134.753 634.48 134.042C634.243 133.331 647.268 139.021 647.268 139.021Z" fill="#EBEBEB"/>
<path d="M634.48 112.467C634.48 112.467 644.189 114.601 644.663 116.024C644.929 116.824 646.17 118.299 647.204 119.437C648.95 121.329 650.111 123.688 650.546 126.227C650.793 127.739 649.755 129.099 649.28 130.841C647.86 136.057 646.794 134.753 648.215 138.547C649.636 142.34 641.111 143.763 637.795 142.103C634.48 140.443 630.809 130.604 630.809 129.419C630.809 128.234 627.613 114.838 630.217 113.89C632.822 112.942 634.48 112.467 634.48 112.467Z" fill="#575A88"/>
<path d="M647.978 123.847L650.82 136.413L660.174 140.562C660.174 140.562 667.278 138.902 667.515 141.51C667.669 143.213 659.463 143.881 659.463 143.881L645.847 138.547L642.768 126.93L647.978 123.847Z" fill="#9F616A"/>
<path d="M644.663 119.106C644.663 119.106 650.583 122.662 649.162 124.559C647.741 126.455 644.189 129.538 643.242 129.538C642.295 129.538 641.584 123.848 641.584 122.188C641.584 120.528 644.663 119.106 644.663 119.106Z" fill="#575A88"/>
<path d="M638.739 95.0752C638.739 95.0752 638.376 96.2871 640.434 97.3778C642.492 98.4686 643.097 102.589 640.676 103.801C638.255 105.013 637.529 106.588 638.739 107.679C639.95 108.77 642.129 111.679 639.223 112.406C636.318 113.133 635.955 114.587 636.802 115.193C637.65 115.799 634.866 114.102 634.866 114.102C634.866 114.102 634.381 117.011 631.839 116.284C629.297 115.557 626.761 102.339 629.595 98.9343C632.229 95.7689 638.739 95.0752 638.739 95.0752Z" fill="#2F2E41"/>
<path d="M639.512 93.8277C639.512 92.0522 634.206 93.328 631.931 95.807C630.356 97.5237 627.963 100.106 629.968 101.927C631.973 103.748 626.532 106.134 625.072 106.858C623.613 107.581 620.731 109.794 623.333 111.278C625.935 112.763 625.893 114.261 624.914 114.616C623.934 114.971 627.072 114.089 627.072 114.089C627.072 114.089 626.755 117.02 629.399 117.006C632.043 116.992 639.628 102.446 637.816 98.4027C636.131 94.6432 639.512 93.8277 639.512 93.8277Z" fill="#2F2E41"/>
<path d="M638.363 93.4387C645.458 93.0109 646.17 98.358 646.17 98.358C646.121 101.452 641.213 99.9446 639.85 100.406C638.205 99.2214 635.035 96.9802 632.768 95.3808C634.414 94.2204 636.353 93.5474 638.363 93.4387V93.4387Z" fill="#2F2E41"/>
<ellipse cx="372.767" cy="30.1009" rx="3.11704" ry="3.00511" fill="white"/>
<ellipse cx="526.771" cy="17.6695" rx="1.73169" ry="1.6695" fill="white"/>
<ellipse cx="689.732" cy="89.6695" rx="1.73169" ry="1.6695" fill="white"/>
<ellipse cx="306.732" cy="59.9722" rx="1.73169" ry="1.6695" fill="white"/>
<ellipse cx="351.732" cy="117.67" rx="1.73169" ry="1.6695" fill="white"/>
<ellipse cx="533.005" cy="208.327" rx="3.11704" ry="3.00511" fill="white"/>
<ellipse cx="637.138" cy="48.5939" rx="3.11704" ry="3.00511" fill="white"/>
<ellipse cx="207.732" cy="9.66951" rx="1.73169" ry="1.6695" fill="white"/>
<ellipse cx="371.732" cy="212.67" rx="1.73169" ry="1.6695" fill="white"/>
<ellipse cx="963.732" cy="122.67" rx="1.73169" ry="1.6695" fill="white"/>
<ellipse cx="845.732" cy="185.67" rx="1.73169" ry="1.6695" fill="white"/>
<ellipse cx="815.732" cy="61.6695" rx="1.73169" ry="1.6695" fill="white"/>
<ellipse cx="51.7317" cy="198.67" rx="1.73169" ry="1.6695" fill="white"/>
<ellipse cx="157.732" cy="92.6695" rx="1.73169" ry="1.6695" fill="white"/>
<ellipse cx="232.732" cy="171.67" rx="1.73169" ry="1.6695" fill="white"/>
<ellipse cx="42.117" cy="105.005" rx="3.11704" ry="3.00511" fill="white"/>
<ellipse cx="77.117" cy="33.0051" rx="3.11704" ry="3.00511" fill="white"/>
<ellipse cx="914.117" cy="215.005" rx="3.11704" ry="3.00511" fill="white"/>
<ellipse cx="883.117" cy="54.0051" rx="3.11704" ry="3.00511" fill="white"/>
<ellipse cx="145.117" cy="189.005" rx="3.11704" ry="3.00511" fill="white"/>
<ellipse cx="246.117" cy="125.005" rx="3.11704" ry="3.00511" fill="white"/>
<ellipse cx="773.117" cy="135.005" rx="3.11704" ry="3.00511" fill="white"/>
<path d="M420.53 143.745H418.261V196.749H420.53V143.745Z" fill="#381E1D"/>
<path d="M418.261 143.745C418.261 143.745 422.118 138.899 425.294 145.184C425.294 145.184 423.782 147.986 423.328 146.623C422.874 145.26 421.787 143.222 420.516 144.43" fill="#381E1D"/>
<path d="M417.92 134.488C417.92 134.488 423.627 140.112 420.816 144.863C420.729 145.01 420.61 145.135 420.468 145.229C420.325 145.323 420.163 145.383 419.994 145.405C419.824 145.427 419.652 145.409 419.491 145.354C419.329 145.3 419.182 145.208 419.061 145.088C418.092 144.129 416.56 141.746 414.678 135.85L417.92 134.488Z" fill="#FDA57D"/>
<path opacity="0.1" d="M413.912 104.863C413.912 104.863 419.811 106.681 418.677 113.798C417.542 120.916 417.996 125.913 417.996 125.913L419.509 135L416.786 138.71C416.786 138.71 412.097 134.015 410.508 129.245C408.92 124.475 409.071 105.62 413.912 104.863Z" fill="black"/>
<path d="M413.836 104.788C413.836 104.788 419.736 106.605 418.601 113.723C417.467 120.84 417.92 125.838 417.92 125.838L419.433 134.924L416.71 138.634C416.71 138.634 412.021 133.94 410.433 129.169C408.845 124.399 408.996 105.545 413.836 104.788Z" fill="#6C63FF"/>
<path d="M406.919 185.84L405.952 193.09C405.952 193.09 408.434 194.108 409.178 193.878C409.922 193.647 411.226 194.583 411.226 194.583C411.226 194.583 416.773 196.338 417.863 194.761C418.952 193.184 416.481 192.702 414.476 191.514C412.472 190.325 411.624 185.738 411.624 185.738L406.919 185.84Z" fill="black"/>
<path d="M417.504 134.659V161.464L412.362 187.057H406.916L407.748 162.524C407.748 162.524 402.076 142.685 404.572 135.265L417.504 134.659Z" fill="#333333"/>
<path d="M413.309 138.041C413.309 138.041 421.238 139.165 421.801 144.657C421.819 144.827 421.797 144.999 421.738 145.159C421.679 145.32 421.585 145.465 421.461 145.583C421.338 145.701 421.19 145.79 421.027 145.842C420.865 145.894 420.692 145.908 420.524 145.884C419.175 145.689 416.528 144.686 411.513 141.067L413.309 138.041Z" fill="#FDA57D"/>
<path d="M414.29 103.576C414.29 103.576 413.004 105.772 413.534 109.558C413.534 109.558 405.933 108.914 406.16 104.523C406.16 104.523 409.866 103.614 410.735 100.244L414.29 103.576Z" fill="#FDA57D"/>
<path d="M401.625 187.43L400.657 194.68C400.657 194.68 403.14 195.698 403.884 195.468C404.628 195.237 405.932 196.173 405.932 196.173C405.932 196.173 411.479 197.928 412.569 196.351C413.658 194.775 411.187 194.292 409.182 193.104C407.177 191.915 406.33 187.328 406.33 187.328L401.625 187.43Z" fill="black"/>
<path opacity="0.1" d="M411.794 136.741V163.546L406.651 189.139H401.206L402.038 164.606C402.038 164.606 396.366 144.768 398.861 137.347L411.794 136.741Z" fill="black"/>
<path d="M411.567 136.741V163.546L406.425 189.139H400.979L401.811 164.606C401.811 164.606 396.139 144.768 398.635 137.347L411.567 136.741Z" fill="#333333"/>
<path opacity="0.1" d="M408.845 104.939C408.845 104.939 404.08 101.835 400.903 111.072C397.727 120.31 399.013 137.347 399.013 137.347C399.013 137.347 412.551 141.739 417.391 135.606V126.443C417.391 126.443 419.963 115.994 416.332 106.908C416.332 106.908 413.156 108.195 408.845 104.939Z" fill="black"/>
<path opacity="0.1" d="M408.693 105.166C408.693 105.166 403.929 102.062 400.752 111.299C397.576 120.537 398.861 137.574 398.861 137.574C398.861 137.574 412.399 141.966 417.24 135.833V126.671C417.24 126.671 419.811 116.221 416.181 107.135C416.181 107.135 413.004 108.422 408.693 105.166Z" fill="black"/>
<path d="M408.693 104.939C408.693 104.939 403.929 101.835 400.752 111.072C397.576 120.31 398.861 137.347 398.861 137.347C398.861 137.347 412.399 141.739 417.24 135.606V126.443C417.24 126.443 419.811 115.994 416.181 106.908C416.181 106.908 413.004 108.195 408.693 104.939Z" fill="#6C63FF"/>
<path opacity="0.1" d="M403.853 109.558C403.853 109.558 409.752 111.375 408.618 118.493C407.483 125.611 407.937 130.608 407.937 130.608L415.5 138.256L412.777 141.966C412.777 141.966 402.038 138.71 400.45 133.94C398.861 129.169 399.013 110.315 403.853 109.558Z" fill="black"/>
<path opacity="0.1" d="M403.475 109.785C403.475 109.785 409.374 111.602 408.24 118.72C407.105 125.838 407.559 130.835 407.559 130.835L415.122 138.483L412.399 142.193C412.399 142.193 401.66 138.937 400.071 134.167C398.483 129.397 398.634 110.542 403.475 109.785Z" fill="black"/>
<path d="M403.626 109.558C403.626 109.558 409.525 111.375 408.391 118.493C407.256 125.611 407.71 130.608 407.71 130.608L415.273 138.256L412.551 141.966C412.551 141.966 401.811 138.71 400.223 133.94C398.634 129.169 398.786 110.315 403.626 109.558Z" fill="#6C63FF"/>
<path opacity="0.1" d="M410.622 100.509L414.177 103.841C414.119 103.946 414.066 104.054 414.019 104.164C413.503 104.301 412.971 104.371 412.437 104.371C411.08 104.371 409.898 103.681 408.883 102.932C409.592 102.29 410.201 101.668 410.622 100.509Z" fill="black"/>
<path d="M411.529 101.267C414.913 101.267 417.656 98.5206 417.656 95.1333C417.656 91.746 414.913 89 411.529 89C408.146 89 405.403 91.746 405.403 95.1333C405.403 98.5206 408.146 101.267 411.529 101.267Z" fill="#E0E0E0"/>
<path d="M412.551 104.106C415.934 104.106 418.677 101.36 418.677 97.9728C418.677 94.5854 415.934 91.8395 412.551 91.8395C409.167 91.8395 406.425 94.5854 406.425 97.9728C406.425 101.36 409.167 104.106 412.551 104.106Z" fill="#FDA57D"/>
<path d="M406.462 95.1333C406.462 95.1333 404.168 101.147 409.021 102.986C409.425 102.78 409.775 102.48 410.041 102.112C410.307 101.744 410.482 101.318 410.552 100.869C410.622 100.421 410.584 99.9616 410.443 99.53C410.301 99.0984 410.059 98.7066 409.737 98.3866L406.462 95.1333Z" fill="#E0E0E0"/>
<path d="M417.507 93.7869C417.507 93.7869 419.622 94.3004 415.916 95.5876C415.306 95.7925 414.745 96.121 414.267 96.5525C413.789 96.984 413.405 97.5093 413.139 98.0958C412.973 98.4534 412.736 98.7732 412.442 99.0354C412.147 99.2975 411.802 99.4965 411.428 99.62C411.054 99.7435 410.659 99.7889 410.267 99.7534C409.874 99.7179 409.493 99.6022 409.148 99.4136L407.975 98.7678L405.933 93.9975L408.353 91.1959L412.513 90.6658L417.507 93.7869Z" fill="#E0E0E0"/>
<path d="M410.925 101.039C411.259 101.039 411.53 100.565 411.53 99.9794C411.53 99.3939 411.259 98.9193 410.925 98.9193C410.59 98.9193 410.32 99.3939 410.32 99.9794C410.32 100.565 410.59 101.039 410.925 101.039Z" fill="#FDA57D"/>
<path d="M408.845 104.939C408.845 104.939 412.967 111.413 415.311 111.413C417.656 111.413 413.667 105.342 413.667 105.342L413.572 107.021L408.845 104.939Z" fill="#333333"/>
<defs>
<linearGradient id="paint0_linear" x1="497.5" y1="0" x2="497.5" y2="227" gradientUnits="userSpaceOnUse">
<stop stop-color="#02537E"/>
<stop offset="1" stop-color="#7043CD"/>
</linearGradient>
<clipPath id="clip0">
<rect width="138.535" height="138.697" fill="white" transform="translate(432 43)"/>
</clipPath>
<clipPath id="clip1">
<rect width="127.221" height="98.7063" fill="white" transform="translate(437.311 49.7037)"/>
</clipPath>
</defs>
</svg>


