<svg width="1200" height="846" viewBox="0 0 1200 846" fill="none" xmlns="http://www.w3.org/2000/svg">
<path d="M1200 -3.83667C1200 142.489 1200 675.433 1200 845.338C1041.03 503.795 466.111 766.627 439.097 503.795C397.621 274.414 -94.9557 416.416 16.3252 -3.83668C707.595 -15.4542 898.517 -3.83667 1200 -3.83667Z" fill="url(#paint0_linear)"/>
<g clip-path="url(#clip0)">
<path d="M672.02 457.212H793.679V546.979H672.02V457.212Z" fill="#1F1835"/>
<path d="M732.826 457.212H793.679V546.979H732.826V457.212Z" fill="#1F1835"/>
<path d="M900.877 462.31H564.823C549.578 462.31 537.219 449.937 537.219 434.674V177.886C537.219 162.622 549.578 150.249 564.823 150.249H900.877C916.123 150.249 928.481 162.622 928.481 177.886V434.674C928.481 449.936 916.122 462.31 900.877 462.31Z" fill="#F4F1F1"/>
<path d="M900.877 150.249H732.826V462.31H900.876C916.122 462.31 928.481 449.937 928.481 434.674V177.886C928.481 162.622 916.122 150.249 900.877 150.249Z" fill="#DAEAEC"/>
<path d="M829.124 529.695H636.576C629.854 529.695 624.405 535.15 624.405 541.88C624.405 548.61 629.854 554.066 636.576 554.066H829.123C835.845 554.066 841.295 548.61 841.295 541.88C841.295 535.15 835.846 529.695 829.124 529.695Z" fill="#1F1835"/>
<path d="M537.36 445.719C537.36 452.681 544.694 458.344 553.71 458.344H909.726C918.742 458.344 926.076 452.681 926.076 445.719V400.208H537.36V445.719Z" fill="#1F1835"/>
<path d="M829.124 529.695H732.826V554.066H829.123C835.845 554.066 841.295 548.61 841.295 541.88C841.295 535.15 835.846 529.695 829.124 529.695Z" fill="#1F1835"/>
<path d="M823.074 338.971C816.353 338.971 810.903 333.515 810.903 326.786V276.464C810.903 269.734 816.353 264.278 823.074 264.278C829.796 264.278 835.246 269.734 835.246 276.464V326.786C835.246 333.515 829.797 338.971 823.074 338.971Z" fill="#FFDA2D"/>
<path d="M801.59 314.6H788.652V292.37C788.652 285.64 783.203 280.184 776.481 280.184C769.759 280.184 764.31 285.64 764.31 292.37V326.786C764.31 333.515 769.759 338.971 776.481 338.971H801.59V314.6Z" fill="#E20059"/>
<path d="M869.668 223.141C862.946 223.141 857.496 228.596 857.496 235.326V314.6H856.575V338.971H869.668C876.389 338.971 881.839 333.515 881.839 326.786V235.326C881.839 228.596 876.389 223.141 869.668 223.141Z" fill="#4D2EE6"/>
<path d="M875.937 338.971H770.237C766.963 338.971 764.31 336.315 764.31 333.038V314.486H881.863V333.038C881.863 336.315 879.211 338.971 875.937 338.971Z" fill="#1F1835"/>
<path d="M732.431 458.345H909.726C918.742 458.345 926.076 452.681 926.076 445.72V400.209H732.431V458.345Z" fill="#1F1835"/>
<path d="M900.877 474.495H564.823C542.891 474.495 525.048 456.631 525.048 434.673V177.886C525.048 155.929 542.891 138.064 564.823 138.064H900.877C922.809 138.064 940.653 155.928 940.653 177.886V434.674C940.653 456.631 922.809 474.495 900.877 474.495ZM564.823 162.435C556.313 162.435 549.39 169.366 549.39 177.886V434.674C549.39 443.193 556.313 450.125 564.823 450.125H900.877C909.387 450.125 916.31 443.194 916.31 434.674V177.886C916.31 169.367 909.387 162.435 900.877 162.435H564.823Z" fill="#1F1835"/>
<path d="M900.877 138.064H732.826V162.435H900.876C909.386 162.435 916.309 169.366 916.309 177.886V434.674C916.309 443.193 909.386 450.125 900.876 450.125H732.826V474.496H900.876C922.809 474.496 940.652 456.632 940.652 434.674V177.886C940.653 155.929 922.809 138.064 900.877 138.064Z" fill="#1F1835"/>
<path d="M699.202 334.868C699.088 335.234 698.94 335.585 698.76 335.915C698.94 335.585 699.088 335.234 699.202 334.868Z" fill="#FFB64C"/>
<path d="M630.101 226.891V224.322H587.913C584.692 224.322 582.08 226.937 582.08 230.162V333.131C582.08 336.356 584.692 338.971 587.913 338.971H640.788V226.891H630.101Z" fill="#FDBF00"/>
<path d="M698.761 335.915C698.581 336.246 698.37 336.558 698.132 336.846C698.37 336.558 698.58 336.246 698.761 335.915Z" fill="#FFB64C"/>
<path d="M696.411 338.267C697.073 337.907 697.657 337.424 698.133 336.847C697.657 337.423 697.073 337.907 696.411 338.267Z" fill="#FFB64C"/>
<path d="M693.631 338.971C694.436 338.971 695.203 338.808 695.901 338.512C695.203 338.808 694.436 338.971 693.631 338.971Z" fill="#FF8700"/>
<path d="M693.631 224.322C694.436 224.322 695.203 224.485 695.901 224.781C695.203 224.485 694.436 224.322 693.631 224.322Z" fill="#FF8700"/>
<path d="M695.902 224.781C695.204 224.485 694.436 224.322 693.631 224.322H651.418V226.891H640.788V338.972H693.631C694.437 338.972 695.204 338.809 695.902 338.513C696.076 338.439 696.247 338.357 696.411 338.267C697.073 337.907 697.657 337.424 698.132 336.847C698.37 336.558 698.581 336.246 698.76 335.916C698.94 335.585 699.089 335.234 699.203 334.869C699.373 334.32 699.465 333.737 699.465 333.132V230.162C699.464 227.743 697.995 225.667 695.902 224.781Z" fill="#FF9100"/>
<path d="M640.788 270.884C634.886 270.884 630.102 266.094 630.102 260.185V224.322H651.475V260.185C651.474 266.094 646.689 270.884 640.788 270.884Z" fill="#FFE470"/>
<path d="M651.474 260.185V224.321H640.788V270.883C646.689 270.884 651.474 266.094 651.474 260.185Z" fill="#FFDA2D"/>
<g clip-path="url(#clip1)">
<path d="M575.682 158.133H887.943C907.105 158.133 922.639 170.185 922.639 185.052V427.324C922.639 442.192 907.105 454.244 887.943 454.244H575.682C556.52 454.244 540.985 442.192 540.985 427.324V185.052C540.985 170.185 556.52 158.133 575.682 158.133Z" fill="#ECE8F5"/>
<path d="M558.333 211.974H905.292C914.873 211.974 922.64 218 922.64 225.433V225.434C922.64 232.868 914.873 238.894 905.292 238.894H558.333C548.752 238.894 540.985 232.868 540.985 225.434V225.433C540.985 218 548.752 211.974 558.333 211.974Z" fill="#53379C"/>
<path d="M540.985 211.972H731.814V454.247H575.682C556.52 454.247 540.985 442.194 540.985 427.327V211.972Z" fill="black"/>
<path d="M558.334 238.891H731.814V211.972H558.334C548.752 211.969 540.983 217.993 540.979 225.426C540.975 232.86 548.739 238.888 558.32 238.891C558.325 238.891 558.329 238.891 558.334 238.891Z" fill="#53379C"/>
<path d="M575.682 158.133H887.946C907.108 158.133 922.643 170.185 922.643 185.052V225.432H540.985V185.052C540.985 170.185 556.52 158.133 575.682 158.133Z" fill="black"/>
<path d="M575.682 158.133H887.95C897.531 158.133 905.298 164.159 905.298 171.592V171.593C905.298 179.026 897.531 185.052 887.95 185.052H575.682C566.101 185.052 558.334 179.026 558.334 171.593V171.592C558.334 164.159 566.101 158.133 575.682 158.133Z" fill="#53379C"/>
<path d="M567.009 211.974H896.623C901.414 211.974 905.298 214.987 905.298 218.704C905.298 222.421 901.414 225.434 896.623 225.434H567.009C562.218 225.434 558.334 222.421 558.334 218.704C558.334 214.987 562.218 211.974 567.009 211.974Z" fill="#53379C"/>
<path d="M913.969 252.351C909.178 252.351 905.294 255.364 905.294 259.081C905.294 259.081 905.294 259.081 905.294 259.081V427.328C905.294 434.761 897.528 440.787 887.947 440.787H792.533C787.742 440.787 783.858 443.8 783.858 447.517C783.858 451.234 787.742 454.247 792.533 454.247H887.947C907.109 454.247 922.642 442.195 922.643 427.328V259.081C922.643 255.364 918.759 252.351 913.969 252.351Z" fill="#D9C9EF"/>
<path d="M549.659 279.268C554.45 279.268 558.333 282.281 558.333 285.998V393.675C558.333 397.392 554.45 400.405 549.659 400.405C544.869 400.405 540.985 397.392 540.985 393.675V285.998C540.986 282.281 544.869 279.268 549.659 279.268Z" fill="#53379C"/>
<path d="M584.359 198.514C589.149 198.514 593.033 195.501 593.033 191.784C593.033 188.067 589.149 185.054 584.359 185.054C579.568 185.054 575.684 188.067 575.684 191.784C575.684 195.501 579.568 198.514 584.359 198.514Z" fill="#FCA5D2"/>
<path d="M619.049 198.514C623.84 198.514 627.724 195.501 627.724 191.784C627.724 188.067 623.84 185.054 619.049 185.054C614.259 185.054 610.375 188.067 610.375 191.784C610.375 195.501 614.259 198.514 619.049 198.514Z" fill="#D5CBEB"/>
<path d="M653.748 198.514C658.539 198.514 662.422 195.501 662.422 191.784C662.422 188.067 658.539 185.054 653.748 185.054C648.957 185.054 645.074 188.067 645.074 191.784C645.074 195.501 648.957 198.514 653.748 198.514Z" fill="#FF8282"/>
<path d="M584.356 333.111H601.704C606.495 333.111 610.378 336.124 610.378 339.841C610.378 343.558 606.495 346.571 601.704 346.571H584.356C579.566 346.571 575.682 343.558 575.682 339.841C575.682 336.124 579.566 333.111 584.356 333.111Z" fill="#FF8282"/>
<path d="M584.356 360.026H601.704C606.495 360.026 610.378 363.04 610.378 366.756C610.378 370.473 606.495 373.486 601.704 373.486H584.356C579.566 373.486 575.682 370.473 575.682 366.756C575.682 363.039 579.566 360.026 584.356 360.026Z" fill="#FF8282"/>
<path d="M584.356 386.948H601.704C606.495 386.948 610.378 389.961 610.378 393.678C610.378 397.395 606.495 400.408 601.704 400.408H584.356C579.566 400.408 575.682 397.395 575.682 393.678C575.682 389.961 579.566 386.948 584.356 386.948Z" fill="#FF8282"/>
<path d="M584.356 413.869H601.704C606.495 413.869 610.378 416.883 610.378 420.599C610.378 424.316 606.495 427.329 601.704 427.329H584.356C579.566 427.329 575.682 424.316 575.682 420.599C575.682 416.883 579.566 413.869 584.356 413.869Z" fill="#FF8282"/>
<path d="M584.356 306.19H601.704C606.495 306.19 610.378 309.203 610.378 312.92C610.378 316.636 606.495 319.65 601.704 319.65H584.356C579.566 319.65 575.682 316.636 575.682 312.92C575.682 309.203 579.566 306.19 584.356 306.19Z" fill="#FF8282"/>
<path d="M584.356 279.268H601.704C606.495 279.268 610.378 282.281 610.378 285.998C610.378 289.715 606.495 292.728 601.704 292.728H584.356C579.566 292.728 575.682 289.715 575.682 285.998C575.682 282.281 579.566 279.268 584.356 279.268Z" fill="#FF8282"/>
<path d="M584.356 252.353H601.704C606.495 252.353 610.378 255.366 610.378 259.083C610.378 262.8 606.495 265.813 601.704 265.813H584.356C579.566 265.813 575.682 262.8 575.682 259.083C575.682 255.366 579.566 252.353 584.356 252.353Z" fill="#FF8282"/>
<path d="M636.4 333.111H653.748C658.539 333.111 662.422 336.124 662.422 339.841C662.422 343.558 658.539 346.571 653.748 346.571H636.4C631.61 346.571 627.726 343.558 627.726 339.841C627.726 336.124 631.61 333.111 636.4 333.111Z" fill="#FCA5D2"/>
<path d="M636.4 360.026H671.096C675.886 360.026 679.77 363.04 679.77 366.756C679.77 370.473 675.886 373.486 671.096 373.486H636.4C631.61 373.486 627.726 370.473 627.726 366.756C627.726 363.039 631.61 360.026 636.4 360.026Z" fill="#D5CBEB"/>
<path d="M636.4 386.948H653.748C658.539 386.948 662.422 389.961 662.422 393.678C662.422 397.395 658.539 400.408 653.748 400.408H636.4C631.61 400.408 627.726 397.395 627.726 393.678C627.726 389.961 631.61 386.948 636.4 386.948Z" fill="#D5CBEB"/>
<path d="M636.4 413.869H653.748C658.539 413.869 662.422 416.883 662.422 420.599C662.422 424.316 658.539 427.329 653.748 427.329H636.4C631.61 427.329 627.726 424.316 627.726 420.599C627.726 416.883 631.61 413.869 636.4 413.869Z" fill="#D5CBEB"/>
<path d="M636.4 306.19H653.748C658.539 306.19 662.422 309.203 662.422 312.92C662.422 316.636 658.539 319.65 653.748 319.65H636.4C631.61 319.65 627.726 316.636 627.726 312.92C627.726 309.203 631.61 306.19 636.4 306.19Z" fill="#D5CBEB"/>
<path d="M688.444 306.19C693.234 306.19 697.118 309.203 697.118 312.92C697.118 316.636 693.234 319.65 688.444 319.65C683.653 319.65 679.769 316.636 679.769 312.92C679.77 309.203 683.653 306.19 688.444 306.19Z" fill="#D5CBEB"/>
<path d="M636.4 279.268H688.441C693.232 279.268 697.116 282.281 697.116 285.998C697.116 289.715 693.232 292.728 688.441 292.728H636.4C631.61 292.728 627.726 289.715 627.726 285.998C627.726 282.281 631.61 279.268 636.4 279.268Z" fill="#D5CBEB"/>
<path d="M636.4 252.353H671.096C675.886 252.353 679.77 255.366 679.77 259.083C679.77 262.8 675.886 265.813 671.096 265.813H636.4C631.61 265.813 627.726 262.8 627.726 259.083C627.726 255.366 631.61 252.353 636.4 252.353Z" fill="#D5CBEB"/>
<path d="M783.861 346.569H870.599C880.18 346.569 887.947 352.595 887.947 360.028V386.946C887.947 394.38 880.18 400.405 870.599 400.405H783.861C774.28 400.405 766.513 394.38 766.513 386.946V360.028C766.513 352.595 774.28 346.569 783.861 346.569Z" fill="#B39DDD"/>
<path d="M775.187 413.869H827.228C832.019 413.869 835.902 416.883 835.902 420.599C835.902 424.316 832.019 427.329 827.228 427.329H775.187C770.397 427.329 766.513 424.316 766.513 420.599C766.513 416.883 770.397 413.869 775.187 413.869Z" fill="#B39DDD"/>
<path d="M861.922 413.869H879.27C884.06 413.869 887.944 416.883 887.944 420.599C887.944 424.316 884.06 427.329 879.27 427.329H861.922C857.132 427.329 853.248 424.316 853.248 420.599C853.248 416.883 857.132 413.869 861.922 413.869Z" fill="#B39DDD"/>
<path d="M783.861 252.353H870.599C880.18 252.353 887.947 258.379 887.947 265.812V292.73C887.947 300.164 880.18 306.19 870.599 306.19H783.861C774.28 306.19 766.513 300.164 766.513 292.73V265.812C766.513 258.379 774.28 252.353 783.861 252.353Z" fill="#B39DDD"/>
<path d="M775.187 319.647H827.228C832.019 319.647 835.902 322.661 835.902 326.377C835.902 330.094 832.019 333.107 827.228 333.107H775.187C770.397 333.107 766.513 330.094 766.513 326.377C766.513 322.66 770.397 319.647 775.187 319.647Z" fill="#B39DDD"/>
<path d="M861.922 319.647H879.27C884.06 319.647 887.944 322.661 887.944 326.377C887.944 330.094 884.06 333.107 879.27 333.107H861.922C857.132 333.107 853.248 330.094 853.248 326.377C853.248 322.66 857.132 319.647 861.922 319.647Z" fill="#B39DDD"/>
</g>
</g>
<path d="M551.769 407.665H544.962V566.677H551.769V407.665Z" fill="#381E1D"/>
<path d="M544.962 407.665C544.962 407.665 556.534 393.127 566.063 411.981C566.063 411.981 561.525 420.386 560.164 416.297C558.803 412.208 555.542 406.096 551.727 409.72" fill="#381E1D"/>
<path d="M543.939 379.892C543.939 379.892 561.06 396.766 552.629 411.019C552.368 411.46 552.01 411.835 551.582 412.117C551.154 412.398 550.668 412.579 550.16 412.644C549.652 412.709 549.136 412.657 548.652 412.492C548.167 412.328 547.726 412.055 547.362 411.694C544.456 408.816 539.86 401.667 534.214 383.981L543.939 379.892Z" fill="#FDA57D"/>
<path opacity="0.1" d="M531.916 291.019C531.916 291.019 549.613 296.471 546.21 317.824C542.807 339.177 544.168 354.169 544.168 354.169L548.706 381.428L540.538 392.559C540.538 392.559 526.47 378.475 521.705 364.164C516.941 349.853 517.395 293.291 531.916 291.019Z" fill="black"/>
<path d="M531.689 290.792C531.689 290.792 549.387 296.244 545.983 317.597C542.58 338.95 543.941 353.942 543.941 353.942L548.479 381.201L540.311 392.332C540.311 392.332 526.243 378.248 521.479 363.937C516.714 349.626 517.168 293.063 531.689 290.792Z" fill="#6C63FF"/>
<path d="M510.936 533.948L508.035 555.7C508.035 555.7 515.482 558.752 517.714 558.062C519.946 557.371 523.858 560.178 523.858 560.178C523.858 560.178 540.5 565.442 543.768 560.712C547.036 555.982 539.623 554.536 533.609 550.97C527.594 547.405 525.051 533.643 525.051 533.643L510.936 533.948Z" fill="black"/>
<path d="M542.693 380.406V460.821L527.264 537.6H510.928L513.424 464.001C513.424 464.001 496.407 404.485 503.894 382.223L542.693 380.406Z" fill="#333333"/>
<path d="M530.107 390.552C530.107 390.552 553.895 393.923 555.584 410.401C555.636 410.911 555.571 411.426 555.394 411.907C555.218 412.388 554.934 412.823 554.564 413.178C554.195 413.532 553.749 413.798 553.261 413.954C552.774 414.11 552.257 414.153 551.751 414.08C547.704 413.497 539.763 410.486 524.718 399.629L530.107 390.552Z" fill="#FDA57D"/>
<path d="M533.05 287.157C533.05 287.157 529.193 293.745 530.781 305.103C530.781 305.103 507.978 303.172 508.659 289.997C508.659 289.997 519.777 287.271 522.386 277.162L533.05 287.157Z" fill="#FDA57D"/>
<path d="M495.053 538.718L492.152 560.47C492.152 560.47 499.6 563.523 501.831 562.832C504.063 562.141 507.975 564.949 507.975 564.949C507.975 564.949 524.617 570.212 527.885 565.482C531.154 560.753 523.741 559.306 517.726 555.741C511.712 552.175 509.169 538.413 509.169 538.413L495.053 538.718Z" fill="black"/>
<path opacity="0.1" d="M525.563 386.653V467.067L510.134 543.847H493.798L496.293 470.248C496.293 470.248 479.276 410.732 486.764 388.47L525.563 386.653Z" fill="black"/>
<path d="M524.882 386.653V467.067L509.453 543.847H493.117L495.613 470.248C495.613 470.248 478.596 410.732 486.083 388.47L524.882 386.653Z" fill="#333333"/>
<path opacity="0.1" d="M516.714 291.246C516.714 291.246 502.419 281.933 492.89 309.646C483.36 337.359 487.218 388.47 487.218 388.47C487.218 388.47 527.832 401.646 542.353 383.246V355.759C542.353 355.759 550.067 324.411 539.176 297.152C539.176 297.152 529.647 301.014 516.714 291.246Z" fill="black"/>
<path opacity="0.1" d="M516.26 291.928C516.26 291.928 501.966 282.614 492.436 310.328C482.907 338.041 486.764 389.152 486.764 389.152C486.764 389.152 527.378 402.327 541.899 383.927V356.441C541.899 356.441 549.614 325.093 538.723 297.834C538.723 297.834 529.193 301.695 516.26 291.928Z" fill="black"/>
<path d="M516.26 291.246C516.26 291.246 501.966 281.933 492.436 309.646C482.907 337.359 486.764 388.47 486.764 388.47C486.764 388.47 527.378 401.646 541.899 383.246V355.759C541.899 355.759 549.614 324.411 538.723 297.152C538.723 297.152 529.193 301.014 516.26 291.246Z" fill="#6C63FF"/>
<path opacity="0.1" d="M501.739 305.103C501.739 305.103 519.437 310.555 516.033 331.908C512.63 353.261 513.991 368.253 513.991 368.253L536.681 391.196L528.512 402.327C528.512 402.327 496.293 392.559 491.529 378.248C486.764 363.937 487.218 307.374 501.739 305.103Z" fill="black"/>
<path opacity="0.1" d="M500.604 305.784C500.604 305.784 518.302 311.236 514.899 332.589C511.495 353.942 512.857 368.935 512.857 368.935L535.546 391.878L527.378 403.008C527.378 403.008 495.159 393.241 490.394 378.93C485.629 364.619 486.083 308.056 500.604 305.784Z" fill="black"/>
<path d="M501.058 305.103C501.058 305.103 518.756 310.555 515.352 331.908C511.949 353.261 513.31 368.253 513.31 368.253L536 391.196L527.832 402.327C527.832 402.327 495.613 392.559 490.848 378.248C486.083 363.937 486.537 307.374 501.058 305.103Z" fill="#6C63FF"/>
<path opacity="0.1" d="M522.046 277.957L532.71 287.952C532.536 288.267 532.377 288.59 532.236 288.92C530.688 289.333 529.093 289.543 527.491 289.542C523.418 289.542 519.874 287.471 516.827 285.226C518.957 283.3 520.784 281.433 522.046 277.957Z" fill="black"/>
<path d="M524.769 280.229C534.919 280.229 543.147 271.991 543.147 261.829C543.147 251.667 534.919 243.429 524.769 243.429C514.619 243.429 506.39 251.667 506.39 261.829C506.39 271.991 514.619 280.229 524.769 280.229Z" fill="#E0E0E0"/>
<path d="M527.832 288.747C537.982 288.747 546.21 280.509 546.21 270.347C546.21 260.186 537.982 251.948 527.832 251.948C517.682 251.948 509.453 260.186 509.453 270.347C509.453 280.509 517.682 288.747 527.832 288.747Z" fill="#FDA57D"/>
<path d="M509.567 261.829C509.567 261.829 502.685 279.871 517.243 285.388C518.456 284.768 519.504 283.869 520.302 282.765C521.1 281.662 521.625 280.384 521.835 279.037C522.045 277.691 521.932 276.314 521.508 275.019C521.083 273.724 520.358 272.549 519.392 271.589L509.567 261.829Z" fill="#E0E0E0"/>
<path d="M542.702 257.79C542.702 257.79 549.046 259.33 537.928 263.192C536.098 263.807 534.414 264.792 532.981 266.087C531.548 267.381 530.396 268.957 529.597 270.717C529.1 271.789 528.387 272.749 527.504 273.535C526.622 274.322 525.587 274.919 524.465 275.289C523.343 275.66 522.157 275.796 520.98 275.689C519.803 275.583 518.66 275.236 517.623 274.67L514.105 272.733L507.979 258.422L515.239 250.017L527.718 248.427L542.702 257.79Z" fill="#E0E0E0"/>
<path d="M522.953 279.547C523.956 279.547 524.769 278.124 524.769 276.367C524.769 274.611 523.956 273.187 522.953 273.187C521.951 273.187 521.138 274.611 521.138 276.367C521.138 278.124 521.951 279.547 522.953 279.547Z" fill="#FDA57D"/>
<path d="M516.714 291.246C516.714 291.246 529.08 310.668 536.113 310.668C543.147 310.668 531.181 292.456 531.181 292.456L530.895 297.493L516.714 291.246Z" fill="#333333"/>
<path d="M967.35 223.282C967.35 223.282 965.809 224.96 968.45 228.208C971.092 231.456 968.959 238.502 963.94 238.682C958.921 238.861 956.487 240.858 957.697 243.489C958.907 246.119 960.361 252.369 954.896 251.419C949.43 250.468 947.703 252.535 948.67 254.124C949.638 255.713 946.233 250.965 946.233 250.965C946.233 250.965 943.187 255.275 939.449 252.258C935.711 249.24 934.225 221.889 941.846 221.425C949.467 220.962 967.35 223.282 967.35 223.282Z" fill="#2F2E41"/>
<path d="M928.715 353.354L926.978 364.902H919.163L921.768 351.704L928.715 353.354Z" fill="#9F616A"/>
<path d="M918.295 357.891C918.295 357.891 907.875 366.964 910.48 367.789C913.085 368.614 922.637 378.513 924.374 379.337C925.927 380.075 942.609 385.112 940.004 379.337C937.399 373.563 931.32 370.264 931.32 370.264L929.584 360.365L918.295 357.891Z" fill="#F2F2F2"/>
<path opacity="0.1" d="M918.295 357.891C918.295 357.891 907.875 366.964 910.48 367.789C913.085 368.614 922.637 378.513 924.374 379.337C925.927 380.075 942.609 385.112 940.004 379.337C937.399 373.563 931.32 370.264 931.32 370.264L929.584 360.365L918.295 357.891Z" fill="black"/>
<path d="M918.295 344.692L916.558 356.241H908.743L911.348 343.042L918.295 344.692Z" fill="#9F616A"/>
<path d="M950.95 314.037L939.569 278.289C939.569 278.289 958.673 261.792 945.648 256.842C932.623 251.893 929.149 276.64 929.149 276.64L933.491 319.533H950.858L950.95 314.037Z" fill="#FFB8B8"/>
<path d="M924.374 287.776C924.374 287.776 946.816 315.12 943.41 319.183C940.004 323.245 933.925 347.992 933.925 347.992C933.925 347.992 934.794 357.891 931.32 357.891C927.847 357.891 919.163 356.241 919.163 353.766C919.163 351.291 926.979 319.946 926.979 319.946L904.402 291.9L924.374 287.776Z" fill="#FF8282"/>
<path d="M922.637 289.425L900.06 277.877C900.06 277.877 884.429 285.301 888.771 291.9C893.113 298.499 913.085 315.821 913.085 315.821C913.085 315.821 907.006 343.867 907.875 344.692C908.743 345.517 918.295 348.817 920.9 347.992C923.505 347.167 937.398 314.997 933.925 313.347C930.452 311.697 919.163 294.375 919.163 294.375L922.637 289.425Z" fill="#FF8282"/>
<path d="M984.289 592.157C984.289 592.157 968.659 601.231 966.922 601.231C965.185 601.231 941.74 607.005 952.16 611.129C962.58 615.254 1002.52 609.48 1001.66 607.005C1000.79 604.53 1001.66 589.682 999.919 589.682C998.183 589.682 984.289 592.157 984.289 592.157Z" fill="#2F2E41"/>
<path d="M966.922 603.705C966.922 603.705 951.292 612.779 949.555 612.779C947.819 612.779 924.373 618.553 934.794 622.678C945.214 626.802 985.158 621.028 984.289 618.553C983.421 616.079 984.289 601.231 982.553 601.231C980.816 601.231 966.922 603.705 966.922 603.705Z" fill="#2F2E41"/>
<path d="M983.421 428.83C983.421 428.83 980.816 441.204 976.474 450.277C972.132 459.351 977.342 502.245 979.947 508.844C982.552 515.443 1007.73 593.807 999.919 594.632C992.104 595.457 976.474 594.632 976.474 594.632L951.292 519.567L955.634 418.932L983.421 428.83Z" fill="#575A88"/>
<path opacity="0.1" d="M983.421 428.83C983.421 428.83 980.816 441.204 976.474 450.277C972.132 459.351 977.342 502.245 979.947 508.844C982.552 515.443 1007.73 593.807 999.919 594.632C992.104 595.457 976.474 594.632 976.474 594.632L951.292 519.567L955.634 418.932L983.421 428.83Z" fill="black"/>
<path d="M978.211 429.655C978.211 429.655 974.737 451.927 966.922 456.876C959.107 461.826 961.712 466.775 961.712 466.775L965.185 510.494C965.185 510.494 999.051 589.682 988.631 599.581C978.211 609.48 968.659 605.355 964.317 604.53C959.975 603.705 952.16 586.383 956.502 581.434C960.844 576.484 947.819 546.788 944.345 541.839C940.872 536.89 944.345 530.291 940.003 528.641C935.662 526.991 926.11 516.268 926.11 508.844C926.11 501.42 913.953 422.231 921.768 417.282C929.583 412.333 979.678 427.497 979.678 427.497L978.211 429.655Z" fill="#575A88"/>
<path d="M994.709 314.172C984.159 314.172 975.606 306.047 975.606 296.024C975.606 286.002 984.159 277.877 994.709 277.877C1005.26 277.877 1013.81 286.002 1013.81 296.024C1013.81 306.047 1005.26 314.172 994.709 314.172Z" fill="#FFB8B8"/>
<path d="M951.292 244.882C942.66 244.882 935.662 238.234 935.662 230.034C935.662 221.834 942.66 215.186 951.292 215.186C959.924 215.186 966.922 221.834 966.922 230.034C966.922 238.234 959.924 244.882 951.292 244.882Z" fill="#9F616A"/>
<path d="M981.684 296.024C981.684 296.024 971.264 314.172 966.054 314.172C960.844 314.172 986.894 333.144 986.894 333.144C986.894 333.144 995.578 309.222 997.315 308.398C999.051 307.573 981.684 296.024 981.684 296.024Z" fill="#FFB8B8"/>
<path d="M978.211 312.522C978.211 312.522 1000.79 319.946 999.919 322.421C999.051 324.895 1006 330.669 1006 333.144C1006 335.619 1007.73 357.89 997.314 376.038C986.894 394.185 970.396 407.383 978.211 415.632C986.026 423.881 998.183 437.904 985.158 437.904C972.132 437.904 951.292 419.757 932.189 426.356C913.085 432.955 917.427 408.208 917.427 408.208C917.427 408.208 914.822 389.236 920.032 383.462C925.242 377.688 943.477 336.444 943.477 331.494C943.477 326.545 960.844 307.573 965.186 307.573C969.527 307.573 978.211 312.522 978.211 312.522Z" fill="#8985A8"/>
<path d="M946.95 239.107C946.95 239.107 939.879 251.879 939.507 254.154C939.135 256.43 926.978 239.107 926.978 239.107L940.872 230.034L946.95 239.107Z" fill="#9F616A"/>
<path d="M944.345 249.006L929.583 234.158L912.216 241.582C912.216 241.582 896.02 275.402 895 277.877C893.981 280.352 920.9 291.9 923.505 291.9C926.11 291.9 944.345 266.329 944.345 266.329C944.345 266.329 948.687 253.955 944.345 249.006Z" fill="#F2F2F2"/>
<path d="M951.292 268.803V283.651H940.872L944.299 268.803H951.292Z" fill="#9F616A"/>
<path d="M945.347 279.939C946.663 279.922 947.954 280.287 949.047 280.985C950.14 281.683 950.983 282.681 951.464 283.845C952.143 285.589 951.912 287.422 948.687 288.188C941.74 289.838 940.872 288.188 940.872 288.188C940.872 288.188 928.813 286.538 931.369 283.239C933.925 279.939 940.872 279.939 940.872 279.939H945.347Z" fill="#9F616A"/>
<path d="M907.875 351.291C907.875 351.291 897.455 360.365 900.06 361.19C902.665 362.015 912.216 371.913 913.953 372.738C915.506 373.476 932.188 378.513 929.583 372.738C926.978 366.964 920.9 363.665 920.9 363.665L919.163 353.766L907.875 351.291Z" fill="#F2F2F2"/>
<path d="M1001.52 282.055C1000.32 281.39 998.909 280.561 998.875 279.246C998.906 278.763 999.085 278.298 999.39 277.91C999.695 277.522 1000.11 277.227 1000.59 277.061C1001.56 276.746 1002.58 276.615 1003.59 276.677C1003.98 276.658 1004.37 276.695 1004.75 276.786C1005.74 277.076 1006.31 278.03 1007.09 278.678C1008.22 279.618 1009.78 279.894 1011.23 280.253C1013.67 280.853 1016.01 281.774 1018.18 282.987C1018.61 283.193 1018.98 283.486 1019.28 283.846C1019.62 284.509 1019.77 285.245 1019.72 285.981C1019.92 288.78 1021.68 291.216 1023 293.726C1024.32 296.235 1025.19 299.362 1023.64 301.75C1023.03 302.494 1022.45 303.267 1021.92 304.066C1020.83 306.238 1022.19 308.911 1021.4 311.199C1021.05 312.099 1020.48 312.91 1019.74 313.567C1018.21 315.026 1016.34 316.106 1014.27 316.714C1012.29 317.291 1009.85 317.676 1009.07 319.494C1008.74 320.275 1008.81 321.194 1008.34 321.908C1007.76 322.793 1006.57 323.079 1005.49 323.268C1004.28 323.531 1003.03 323.617 1001.79 323.522C1001.17 323.471 1000.57 323.301 1000.02 323.023C999.475 322.744 998.993 322.362 998.605 321.901C998.254 321.25 997.821 320.642 997.314 320.092C996.056 319.094 994.147 319.883 992.532 319.618C991.877 319.501 991.272 319.209 990.787 318.776C990.301 318.343 989.956 317.788 989.791 317.175C989.747 316.522 989.557 315.885 989.235 315.307C988.232 314.088 985.594 314.949 984.931 313.535C984.501 312.617 985.401 311.647 986.272 311.075C987.691 310.142 989.277 309.425 990.55 308.318C991.823 307.211 992.764 305.555 992.366 303.96C991.768 301.569 988.481 300.252 988.372 297.796C988.31 296.389 989.374 295.154 990.566 294.316C991.757 293.479 993.138 292.877 994.203 291.897C994.981 291.181 995.568 290.283 996.415 289.64C997.945 288.477 1000.04 288.336 1001.99 288.146C1003.03 288.044 1007.21 287.586 1007.04 286.073C1006.91 284.816 1002.58 282.646 1001.52 282.055Z" fill="#2F2E41"/>
<path d="M944.345 248.181C944.345 248.181 953.897 251.481 953.897 255.605C953.897 259.729 958.239 272.928 953.897 272.928C949.555 272.928 940.872 269.761 940.872 269.761L944.345 248.181Z" fill="#F2F2F2"/>
<path d="M946.95 307.573C946.95 307.573 921.768 299.324 920.9 299.324C920.032 299.324 907.875 292.725 908.743 290.25L912.217 269.628C912.217 269.628 926.11 242.407 916.558 242.407C907.007 242.407 901.796 263.854 901.796 263.854C901.796 263.854 880.956 300.974 892.245 309.222C903.533 317.471 950.424 332.319 953.029 329.844C955.634 327.37 946.95 307.573 946.95 307.573Z" fill="#FFB8B8"/>
<path d="M922.636 253.955L916.775 259.321L924.373 266.329C924.373 266.329 934.793 262.204 933.925 264.679C933.057 267.153 927.847 274.577 924.373 274.577C920.9 274.577 902.822 263.854 902.743 260.554C902.664 257.255 913.953 245.707 916.558 244.882C919.163 244.057 922.636 253.955 922.636 253.955Z" fill="#9F616A"/>
<path d="M933.658 248.206C933.658 248.206 920.9 258.905 919.163 258.905C917.426 258.905 914.268 242.83 914.268 242.83C914.268 242.83 924.562 236.458 928.375 238.195C932.188 239.932 933.658 248.206 933.658 248.206Z" fill="#F2F2F2"/>
<path d="M978.211 317.471C978.211 317.471 978.211 305.923 952.16 305.923H940.872L946.082 333.144L963.449 338.093L978.211 317.471Z" fill="#8985A8"/>
<path d="M921.307 224.016C923.86 224.004 926.41 223.855 928.946 223.568C930.937 218.998 933.473 215.163 936.216 213.733C938.163 212.078 941.165 210.875 943.521 209.924C949.307 207.589 958.939 209.046 959.502 211.701C970.887 216.869 968.01 225.944 968.01 225.944C966.241 229.497 962.272 227.922 958.905 226.314C958.045 228.889 956.015 231.074 953.107 231.178C947.547 231.377 944.851 233.589 946.192 236.503C947.532 239.417 949.143 246.34 943.088 245.288C937.033 244.235 935.12 246.525 936.192 248.285C937.263 250.045 933.492 244.785 933.492 244.785C933.492 244.785 930.118 249.56 925.976 246.217C925.558 245.834 925.259 245.348 925.114 244.813C923.188 245.6 921.662 245.899 920.796 245.531C915.836 243.423 918.917 238.472 918.917 238.472C918.917 238.472 912.294 237.507 914.428 237.667C916.562 237.827 917.912 235.2 914.301 230.464C910.691 225.728 917.962 224.123 921.307 224.016Z" fill="#2F2E41"/>
<path d="M954.901 220.303L957.373 219.522L959.84 226.566L957.369 227.347L954.901 220.303Z" fill="#FF8282"/>
<path d="M1101.79 324.827C1101.79 324.827 1100.81 328.109 1106.38 331.063C1111.95 334.017 1113.59 345.175 1107.04 348.457C1100.48 351.739 1098.51 356.006 1101.79 358.96C1105.07 361.913 1110.97 369.79 1103.1 371.759C1095.24 373.728 1094.25 377.667 1096.55 379.308C1098.84 380.949 1091.3 376.354 1091.3 376.354C1091.3 376.354 1089.99 384.231 1083.11 382.261C1076.22 380.292 1056.88 342.878 1066.72 337.627C1076.55 332.376 1101.79 324.827 1101.79 324.827Z" fill="#2F2E41"/>
<path d="M1076.39 603.066L1078.52 622.981L1069.29 628.671L1060.76 627.248L1065.02 603.066H1076.39Z" fill="#9F616A"/>
<path d="M1083.5 364.086C1094.48 364.086 1103.39 355.169 1103.39 344.17C1103.39 333.172 1094.48 324.255 1083.5 324.255C1072.51 324.255 1063.6 333.172 1063.6 344.17C1063.6 355.169 1072.51 364.086 1083.5 364.086Z" fill="#9F616A"/>
<path d="M1090.24 353.772C1090.24 353.772 1092.02 384.001 1094.15 384.001C1096.28 384.001 1069.29 382.578 1069.29 382.578C1069.29 382.578 1080.65 362.663 1074.97 356.262C1069.29 349.861 1090.24 353.772 1090.24 353.772Z" fill="#9F616A"/>
<path d="M1060.76 513.449L1070 549.01L1062.89 609.467L1079.23 608.044L1085.63 513.449H1060.76Z" fill="#2F2E41"/>
<path opacity="0.2" d="M1060.76 513.449L1070 549.01L1062.89 609.467L1079.23 608.044L1085.63 513.449H1060.76Z" fill="black"/>
<path d="M1074.97 619.425C1074.97 619.425 1075.68 615.157 1082.79 619.425C1089.89 623.692 1119.73 637.206 1104.1 640.051C1088.47 642.896 1056.5 636.495 1056.5 634.361C1056.5 632.227 1055.79 618.713 1058.63 620.136C1061.47 621.558 1070.71 630.805 1074.97 619.425Z" fill="#2F2E41"/>
<path d="M1065.73 614.446C1065.73 614.446 1054.37 632.227 1053.66 637.206C1052.95 642.185 1042.29 625.826 1042.29 625.826L1052.24 607.333L1065.73 614.446Z" fill="#9F616A"/>
<path d="M1103.39 516.293L1090.6 558.968C1090.6 558.968 1067.87 619.425 1066.45 618.713C1065.02 618.002 1047.97 613.735 1047.26 611.601C1046.55 609.467 1068.58 551.856 1068.58 551.856L1071.42 514.871L1103.39 516.293Z" fill="#2F2E41"/>
<path d="M1040.16 622.981C1042.1 622.847 1044.03 623.324 1045.69 624.344C1047.34 625.364 1048.64 626.877 1049.4 628.671C1052.24 635.072 1055.79 635.783 1056.5 636.495C1057.21 637.206 1054.37 652.142 1056.5 653.565C1058.63 654.987 1060.76 669.923 1053.66 669.923C1046.55 669.923 1035.19 662.1 1035.9 660.677C1036.61 659.255 1036.61 649.297 1034.48 645.03C1032.35 640.762 1028.79 633.65 1034.48 629.382C1040.16 625.115 1040.16 622.981 1040.16 622.981Z" fill="#2F2E41"/>
<path d="M1107.65 450.147L1109.07 462.949C1109.07 462.949 1119.73 473.618 1123.28 486.421C1126.83 499.223 1155.96 520.561 1147.43 523.406C1138.91 526.251 1128.96 527.673 1104.1 523.406C1079.23 519.138 1040.16 528.384 1040.16 504.913C1040.16 504.913 1035.19 498.512 1031.63 507.758C1029.13 514.074 1026.29 520.247 1023.11 526.251C1023.11 526.251 1014.58 511.314 1017.43 504.913C1020.27 498.512 1017.43 499.223 1020.98 492.111C1024.53 484.998 1042.29 458.682 1049.4 457.259C1056.5 455.837 1070 437.344 1069.29 435.211C1068.58 433.077 1107.65 450.147 1107.65 450.147Z" fill="#EBEBEB"/>
<path d="M1069.29 370.487C1069.29 370.487 1098.41 376.888 1099.84 381.156C1100.63 383.556 1104.36 387.982 1107.46 391.395C1112.7 397.072 1116.18 404.147 1117.49 411.765C1118.23 416.302 1115.11 420.382 1113.69 425.609C1109.43 441.256 1106.23 437.344 1110.49 448.724C1114.75 460.104 1089.18 464.372 1079.23 459.393C1069.29 454.414 1058.28 424.897 1058.28 421.341C1058.28 417.785 1048.68 377.599 1056.5 374.754C1064.31 371.909 1069.29 370.487 1069.29 370.487Z" fill="#575A88"/>
<path d="M1109.78 404.627L1118.31 442.323L1146.37 454.77C1146.37 454.77 1167.68 449.791 1168.39 457.615C1168.85 462.723 1144.24 464.728 1144.24 464.728L1103.39 448.724L1094.15 413.873L1109.78 404.627Z" fill="#9F616A"/>
<path d="M1099.84 390.402C1099.84 390.402 1117.6 401.071 1113.33 406.761C1109.07 412.451 1098.41 421.697 1095.57 421.697C1092.73 421.697 1090.6 404.627 1090.6 399.648C1090.6 394.669 1099.84 390.402 1099.84 390.402Z" fill="#575A88"/>
<path d="M1082.06 318.31C1082.06 318.31 1080.98 321.946 1087.15 325.218C1093.32 328.49 1095.14 340.852 1087.87 344.487C1080.61 348.123 1078.43 352.85 1082.06 356.122C1085.7 359.394 1092.23 368.12 1083.52 370.301C1074.8 372.483 1073.71 376.846 1076.25 378.664C1078.8 380.481 1070.44 375.391 1070.44 375.391C1070.44 375.391 1068.99 384.117 1061.36 381.936C1053.74 379.754 1046.13 340.1 1054.63 329.887C1062.54 320.391 1082.06 318.31 1082.06 318.31Z" fill="#2F2E41"/>
<path d="M1084.38 314.567C1084.38 309.241 1068.47 313.068 1061.64 320.505C1056.91 325.655 1049.74 333.404 1055.75 338.865C1061.77 344.327 1045.44 351.487 1041.06 353.657C1036.69 355.828 1028.04 362.466 1035.85 366.92C1043.65 371.373 1043.53 375.868 1040.59 376.933C1037.65 377.997 1047.06 375.35 1047.06 375.35C1047.06 375.35 1046.11 384.145 1054.04 384.103C1061.98 384.061 1084.73 340.422 1079.29 328.292C1074.24 317.014 1084.38 314.567 1084.38 314.567Z" fill="#2F2E41"/>
<path d="M1080.94 313.4C1102.22 312.117 1104.36 328.158 1104.36 328.158C1104.21 337.441 1089.49 332.918 1085.4 334.302C1080.46 330.748 1070.95 324.025 1064.15 319.227C1069.09 315.745 1074.91 313.726 1080.94 313.4Z" fill="#2F2E41"/>
<ellipse cx="296.811" cy="73.5249" rx="9.35111" ry="9.01533" fill="white"/>
<ellipse cx="758.825" cy="36.2307" rx="5.19506" ry="5.00851" fill="white"/>
<ellipse cx="1178.59" cy="735.265" rx="5.19506" ry="5.00851" fill="white"/>
<ellipse cx="1168.2" cy="289.353" rx="5.19506" ry="5.00851" fill="white"/>
<ellipse cx="98.7062" cy="163.139" rx="5.19506" ry="5.00851" fill="white"/>
<ellipse cx="405.561" cy="247.051" rx="5.19506" ry="5.00851" fill="white"/>
<ellipse cx="777.528" cy="608.203" rx="9.35111" ry="9.01533" fill="white"/>
<ellipse cx="1089.92" cy="129.004" rx="9.35111" ry="9.01533" fill="white"/>
<defs>
<linearGradient id="paint0_linear" x1="734.79" y1="-19.7869" x2="741.072" y2="790.245" gradientUnits="userSpaceOnUse">
<stop stop-color="#02537E"/>
<stop offset="1" stop-color="#7043CD"/>
</linearGradient>
<clipPath id="clip0">
<rect width="415.605" height="416.092" fill="white" transform="translate(525.048 138.019)"/>
</clipPath>
<clipPath id="clip1">
<rect width="381.664" height="296.119" fill="white" transform="translate(540.979 158.13)"/>
</clipPath>
</defs>
</svg>
