<svg width="18" height="24" viewBox="0 0 18 24" fill="none" xmlns="http://www.w3.org/2000/svg">
<path d="M7.5 0C7.10218 0 6.72064 0.158035 6.43934 0.43934C6.15804 0.720644 6 1.10218 6 1.5C6 1.89782 6.15804 2.27936 6.43934 2.56066C6.72064 2.84196 7.10218 3 7.5 3H10.5C10.8978 3 11.2794 2.84196 11.5607 2.56066C11.842 2.27936 12 1.89782 12 1.5C12 1.10218 11.842 0.720644 11.5607 0.43934C11.2794 0.158035 10.8978 0 10.5 0H7.5Z" fill="#6840CE"/>
<path fill-rule="evenodd" clip-rule="evenodd" d="M0 4.5C0 3.70435 0.31607 2.94129 0.87868 2.37868C1.44129 1.81607 2.20435 1.5 3 1.5C3 2.69347 3.47411 3.83807 4.31802 4.68198C5.16193 5.52589 6.30653 6 7.5 6H10.5C11.6935 6 12.8381 5.52589 13.682 4.68198C14.5259 3.83807 15 2.69347 15 1.5C15.7956 1.5 16.5587 1.81607 17.1213 2.37868C17.6839 2.94129 18 3.70435 18 4.5V21C18 21.7956 17.6839 22.5587 17.1213 23.1213C16.5587 23.6839 15.7956 24 15 24H3C2.20435 24 1.44129 23.6839 0.87868 23.1213C0.31607 22.5587 0 21.7956 0 21V4.5ZM4.5 10.5C4.10218 10.5 3.72064 10.658 3.43934 10.9393C3.15804 11.2206 3 11.6022 3 12C3 12.3978 3.15804 12.7794 3.43934 13.0607C3.72064 13.342 4.10218 13.5 4.5 13.5H4.515C4.91283 13.5 5.29436 13.342 5.57566 13.0607C5.85696 12.7794 6.015 12.3978 6.015 12C6.015 11.6022 5.85696 11.2206 5.57566 10.9393C5.29436 10.658 4.91283 10.5 4.515 10.5H4.5ZM9 10.5C8.60218 10.5 8.22064 10.658 7.93934 10.9393C7.65804 11.2206 7.5 11.6022 7.5 12C7.5 12.3978 7.65804 12.7794 7.93934 13.0607C8.22064 13.342 8.60218 13.5 9 13.5H13.5C13.8978 13.5 14.2794 13.342 14.5607 13.0607C14.842 12.7794 15 12.3978 15 12C15 11.6022 14.842 11.2206 14.5607 10.9393C14.2794 10.658 13.8978 10.5 13.5 10.5H9ZM4.5 16.5C4.10218 16.5 3.72064 16.658 3.43934 16.9393C3.15804 17.2206 3 17.6022 3 18C3 18.3978 3.15804 18.7794 3.43934 19.0607C3.72064 19.342 4.10218 19.5 4.5 19.5H4.515C4.91283 19.5 5.29436 19.342 5.57566 19.0607C5.85696 18.7794 6.015 18.3978 6.015 18C6.015 17.6022 5.85696 17.2206 5.57566 16.9393C5.29436 16.658 4.91283 16.5 4.515 16.5H4.5ZM9 16.5C8.60218 16.5 8.22064 16.658 7.93934 16.9393C7.65804 17.2206 7.5 17.6022 7.5 18C7.5 18.3978 7.65804 18.7794 7.93934 19.0607C8.22064 19.342 8.60218 19.5 9 19.5H13.5C13.8978 19.5 14.2794 19.342 14.5607 19.0607C14.842 18.7794 15 18.3978 15 18C15 17.6022 14.842 17.2206 14.5607 16.9393C14.2794 16.658 13.8978 16.5 13.5 16.5H9Z" fill="#6840CE"/>
</svg>
