<svg width="350" height="263" viewBox="0 0 350 263" fill="none" xmlns="http://www.w3.org/2000/svg">
<path d="M82.2413 175.219L285.154 175.219V30.5462L82.2413 30.5462L82.2413 175.219Z" fill="#E6E6E6"/>
<path d="M216.729 122.325H149.354V138.574H216.729V122.325Z" fill="white"/>
<path d="M161.49 132.624C162.606 132.624 163.511 131.719 163.511 130.602C163.511 129.486 162.606 128.581 161.49 128.581C160.374 128.581 159.469 129.486 159.469 130.602C159.469 131.719 160.374 132.624 161.49 132.624Z" fill="#1F1835"/>
<path d="M172.086 132.624C173.203 132.624 174.107 131.719 174.107 130.602C174.107 129.486 173.203 128.581 172.086 128.581C170.97 128.581 170.065 129.486 170.065 130.602C170.065 131.719 170.97 132.624 172.086 132.624Z" fill="#1F1835"/>
<path d="M183.383 132.624C184.499 132.624 185.404 131.719 185.404 130.602C185.404 129.486 184.499 128.581 183.383 128.581C182.266 128.581 181.361 129.486 181.361 130.602C181.361 131.719 182.266 132.624 183.383 132.624Z" fill="#1F1835"/>
<path d="M193.979 132.624C195.095 132.624 196 131.719 196 130.602C196 129.486 195.095 128.581 193.979 128.581C192.862 128.581 191.958 129.486 191.958 130.602C191.958 131.719 192.862 132.624 193.979 132.624Z" fill="#1F1835"/>
<path d="M204.584 132.624C205.7 132.624 206.605 131.719 206.605 130.602C206.605 129.486 205.7 128.581 204.584 128.581C203.467 128.581 202.562 129.486 202.562 130.602C202.562 131.719 203.467 132.624 204.584 132.624Z" fill="#1F1835"/>
<path opacity="0.4" d="M208.434 70.84H156.94V106.619H208.434V70.84Z" fill="#A5A5A5"/>
<path d="M112 156.432C112 156.432 115.736 173.731 125.597 172.839C135.459 171.946 138.723 143.754 138.723 143.754L135.1 140.35L112 156.432Z" fill="#F4A28C"/>
<path d="M102.375 117.329C102.375 117.329 123.62 120.487 125.633 143.754L111.694 149.713L102.375 117.329Z" fill="#02537E"/>
<path opacity="0.2" d="M111.694 149.713L102.375 117.338C102.375 117.338 123.62 120.496 125.633 143.763" fill="white"/>
<path opacity="0.08" d="M183.75 120.689L189.98 131.049L181.589 135.774L174.772 123.524L165.375 128.231L172.375 141.356L163.494 146.545L157.229 135.756L152.854 139.029C151.561 139.998 150.53 141.273 149.852 142.739C149.174 144.205 148.87 145.816 148.969 147.429C149.389 154.543 149.406 167.344 145.014 174.921L115.692 175.201L119.052 148.409L87.5 119.271L83.5975 106.418L81.1125 94.57L86.7563 91.56C87.6282 91.094 88.616 90.8891 89.6013 90.9697C90.5867 91.0504 91.528 91.4133 92.3125 92.015C94.3688 93.5988 96.4775 96.3288 95.2788 100.555C93.1613 108.045 94.3338 116.305 99.2425 117.443C104.151 118.58 124.276 112.49 128.721 123.716C133.166 134.943 135.502 135.879 146.265 126.998C157.027 118.116 175 109.305 175 109.305L183.75 120.689Z" fill="black"/>
<path opacity="0.45" d="M182.691 239.269C257.74 239.269 318.579 234.822 318.579 229.338C318.579 223.853 257.74 219.406 182.691 219.406C107.643 219.406 46.8037 223.853 46.8037 229.338C46.8037 234.822 107.643 239.269 182.691 239.269Z" fill="#E6E6E6"/>
<path d="M82.1188 222.101C82.1188 222.101 80.3687 224.263 81.3925 226.406C82.4163 228.55 80.7625 230.282 79.1437 228.751C77.525 227.22 77.0612 221.078 77.0612 221.078L80.0888 219.459L82.1188 222.101Z" fill="#02537E"/>
<path d="M133.936 206.29C133.936 206.29 135.021 208.915 137.436 208.915C139.851 208.915 140.569 211.277 138.46 211.995C136.351 212.712 130.708 210.245 130.708 210.245V206.806L133.936 206.29Z" fill="#02537E"/>
<path d="M83.1862 97.125C83.1862 97.125 86.1087 101.413 87.0362 104.834C87.2104 105.502 87.1143 106.212 86.7687 106.81C86.4231 107.407 85.8559 107.845 85.19 108.028C84.1381 108.374 83.0089 108.41 81.9369 108.132C80.8649 107.855 79.8953 107.275 79.1437 106.461L75.5738 103.25C74.9249 102.536 74.5133 101.639 74.3958 100.681C74.2783 99.7237 74.4605 98.7533 74.9175 97.9038C76.4313 94.6488 81.5325 94.4125 83.1862 97.125Z" fill="#F4A28C"/>
<path d="M77.1838 103.136L79.555 117.25L89.1187 117.688L83.5537 106.663L77.1838 103.136Z" fill="#F4A28C"/>
<path d="M82.1625 97.93C80.7898 98.7755 79.3211 99.4541 77.7875 99.9513C78.5494 100.336 79.1803 100.938 79.6007 101.68C80.0211 102.423 80.2123 103.274 80.15 104.125C80.1244 104.964 79.7912 105.764 79.2138 106.374C79.0055 106.571 78.7542 106.717 78.4796 106.801C78.2051 106.884 77.9149 106.902 77.632 106.854C77.3492 106.805 77.0816 106.692 76.8504 106.522C76.6192 106.352 76.4307 106.13 76.3 105.875L73.9375 101.552C73.4498 100.733 73.1924 99.7977 73.1924 98.8444C73.1924 97.891 73.4498 96.9554 73.9375 96.1363C74.3598 95.4273 74.8275 94.7463 75.3375 94.0975C76.6325 92.4875 79.7125 92.225 80.5875 90.2475C80.6776 90.0514 80.8165 89.8817 80.9909 89.7546C81.1654 89.6276 81.3696 89.5475 81.5839 89.5221C81.7982 89.4966 82.0154 89.5266 82.2148 89.6092C82.4142 89.6918 82.589 89.8242 82.7225 89.9938C83.9738 91.6125 85.225 94.57 83.3788 96.88C83.0322 97.2929 82.6216 97.6474 82.1625 97.93V97.93Z" fill="#1F1835"/>
<path d="M80.5613 103.679C80.5613 103.679 79.5463 101.929 78.3125 102.804C77.0787 103.679 78.5313 106.172 80.4388 105.429L80.5613 103.679Z" fill="#F4A28C"/>
<path d="M84.875 99.8987L87.115 100.931C87.2347 100.997 87.3373 101.09 87.4147 101.202C87.4922 101.314 87.5422 101.443 87.5609 101.578C87.5796 101.714 87.5665 101.851 87.5225 101.981C87.4784 102.11 87.4048 102.227 87.3075 102.322L85.75 103.626L84.875 99.8987Z" fill="#F4A28C"/>
<path opacity="0.31" d="M84.385 108.325C83.2366 108.396 82.0904 108.154 81.0687 107.625C81.0687 107.625 81.34 111.335 85.9775 111.484L84.385 108.325Z" fill="#CE8172"/>
<path d="M63.3325 122.412C75.8975 114.126 97.0638 112.385 109.051 120.662C120.873 128.782 115.176 176.82 115.176 176.82L90.6325 184.214C90.6325 184.214 43.19 148.838 63.3325 122.412Z" fill="#02537E"/>
<path d="M86.7037 184.625L90.2737 193.235C90.7404 195.749 90.6698 198.334 90.0666 200.819C89.4634 203.305 88.3412 205.634 86.7737 207.655L77.875 219.126L82.7837 222.626L95.6812 212.354C98.3155 210.257 100.447 207.597 101.918 204.568C103.39 201.54 104.165 198.221 104.186 194.854V190.479L102.585 184.861L86.7037 184.625Z" fill="#1F1835"/>
<path opacity="0.08" d="M77.875 125.256C77.875 125.256 87.185 129.631 85.9425 143.754C84.7 157.876 84.7 174.466 106.724 173.626V181.02L92.295 183.19L75.1013 166.565L73.6137 141.015L77.875 125.256Z" fill="black"/>
<path opacity="0.08" d="M117.898 169.181L120.242 171.342L134.146 142.529L116.559 154.227L117.898 169.181Z" fill="black"/>
<path d="M95.235 191.161L100.012 194.294L117.6 188.851C118.458 188.586 119.361 188.498 120.253 188.595C121.146 188.691 122.009 188.969 122.79 189.412C123.571 189.855 124.254 190.452 124.795 191.168C125.337 191.885 125.726 192.704 125.939 193.576L129.194 206.981L135.161 206.482L133.227 188.37C132.88 185.114 131.353 182.098 128.936 179.89C126.518 177.682 123.376 176.434 120.102 176.383L106.531 176.199L95.235 191.161Z" fill="#1F1835"/>
<path d="M182.096 126.726L190.75 121.538L178.167 100.538L111.125 145.705C106.782 141.378 100.988 138.816 94.8648 138.513C88.7415 138.211 82.7235 140.189 77.9748 144.067C73.2261 147.945 70.084 153.446 69.1563 159.506C68.2286 165.566 69.5812 171.755 72.9524 176.876C76.3237 181.996 81.474 185.685 87.4074 187.228C93.3408 188.771 99.6357 188.059 105.075 185.23C110.513 182.4 114.71 177.654 116.852 171.91C118.994 166.166 118.93 159.831 116.672 154.131L158.375 126L166.583 138.714L175.053 133.245L166.74 120.365L174.974 114.826L182.096 126.726ZM93.625 177.949C90.7176 177.949 87.8755 177.087 85.4581 175.471C83.0407 173.856 81.1566 171.56 80.044 168.874C78.9314 166.188 78.6403 163.232 79.2075 160.381C79.7747 157.529 81.1747 154.91 83.2305 152.854C85.2864 150.798 87.9057 149.398 90.7572 148.831C93.6087 148.264 96.5644 148.555 99.2504 149.668C101.937 150.78 104.232 152.664 105.848 155.082C107.463 157.499 108.325 160.341 108.325 163.249C108.32 167.146 106.77 170.882 104.014 173.638C101.259 176.394 97.5223 177.944 93.625 177.949V177.949Z" fill="#EBC709"/>
<path d="M78.0937 131.775C78.9687 122.491 67.5937 117.294 61.2412 124.154C56.1662 129.658 51.3625 138.941 51.835 154.21C52.8063 185.71 62.1687 193.113 85.96 191.59C88.7845 192.139 91.71 191.8 94.3337 190.619C94.7186 190.42 95.0323 190.106 95.232 189.722C95.4317 189.337 95.5075 188.9 95.449 188.471C95.3905 188.041 95.2007 187.64 94.9054 187.323C94.6102 187.006 94.2241 186.788 93.8 186.699C91.1225 186.174 87.7712 185.824 85.925 186.848C85.925 186.848 64.1813 179.97 70.5688 154.271C70.6213 154.271 77.07 142.529 78.0937 131.775Z" fill="#F4A28C"/>
<path d="M61.0487 123.856C56.5337 127.592 51.03 134.951 51.1263 148.584L73.6487 151.104C73.6487 151.104 86.7737 129.281 74.7512 122.421C72.5904 121.246 70.1236 120.753 67.677 121.01C65.2304 121.266 62.9192 122.258 61.0487 123.856V123.856Z" fill="#02537E"/>
<path opacity="0.2" d="M61.0487 123.856C56.5337 127.592 51.03 134.951 51.1263 148.584L73.6487 151.104C73.6487 151.104 86.7737 129.281 74.7512 122.421C72.5904 121.246 70.1236 120.753 67.677 121.01C65.2304 121.266 62.9192 122.258 61.0487 123.856V123.856Z" fill="white"/>
<path d="M134.146 142.529C134.146 142.529 139.501 135.949 142.555 138.635C145.609 141.321 140 149.424 134.146 142.529Z" fill="#F4A28C"/>
<path opacity="0.08" d="M51.8963 148.671V155.304L70.6213 154.271L72.205 151.104L51.8963 148.671Z" fill="black"/>
<path d="M96.9238 45.6663C99.2627 45.6663 101.159 43.7702 101.159 41.4313C101.159 39.0923 99.2627 37.1963 96.9238 37.1963C94.5848 37.1963 92.6888 39.0923 92.6888 41.4313C92.6888 43.7702 94.5848 45.6663 96.9238 45.6663Z" fill="#1F1835"/>
<path d="M109.524 45.6663C111.863 45.6663 113.759 43.7702 113.759 41.4313C113.759 39.0923 111.863 37.1963 109.524 37.1963C107.185 37.1963 105.289 39.0923 105.289 41.4313C105.289 43.7702 107.185 45.6663 109.524 45.6663Z" fill="#02537E"/>
<path d="M121.398 45.6663C123.736 45.6663 125.633 43.7702 125.633 41.4313C125.633 39.0923 123.736 37.1963 121.398 37.1963C119.059 37.1963 117.162 39.0923 117.162 41.4313C117.162 43.7702 119.059 45.6663 121.398 45.6663Z" fill="#EBC709"/>
<path d="M202.169 70.875H196.149V67.7512C196.149 64.1821 194.731 60.7591 192.207 58.2354C189.683 55.7116 186.26 54.2937 182.691 54.2937C179.122 54.2937 175.699 55.7116 173.175 58.2354C170.652 60.7591 169.234 64.1821 169.234 67.7512V70.875H163.214V67.7512C163.214 62.5855 165.266 57.6313 168.919 53.9786C172.571 50.3258 177.525 48.2737 182.691 48.2737C187.857 48.2737 192.811 50.3258 196.464 53.9786C200.117 57.6313 202.169 62.5855 202.169 67.7512V70.875Z" fill="white"/>
<path d="M183.356 87.6138C186.14 87.6138 188.396 85.3573 188.396 82.5738C188.396 79.7902 186.14 77.5338 183.356 77.5338C180.573 77.5338 178.316 79.7902 178.316 82.5738C178.316 85.3573 180.573 87.6138 183.356 87.6138Z" fill="#A5A5A5"/>
<path d="M186.392 85.1638H180.871V98.595H186.392V85.1638Z" fill="#A5A5A5"/>
<path d="M196.499 147.402H168.884V161.131H196.499V147.402Z" fill="#1F1835"/>
<path opacity="0.13" d="M193.532 149.713H183.881V154.263H193.532V149.713Z" fill="white"/>
<path opacity="0.58" d="M279.282 214.156C279.282 214.156 269.15 211.435 266.875 202.02C266.875 202.02 282.546 198.782 283.062 214.97L279.282 214.156Z" fill="#02537E"/>
<path opacity="0.73" d="M280.525 213.141C280.525 213.141 273.403 201.994 279.589 191.502C279.589 191.502 291.55 199.036 286.309 213.141H280.525Z" fill="#02537E"/>
<path d="M282.345 213.141C282.345 213.141 286.037 201.32 297.325 199.036C297.325 199.036 299.478 206.693 290.071 213.141H282.345Z" fill="#02537E"/>
<path d="M275.004 212.914L277.113 226.949H290.045L291.891 212.914H275.004Z" fill="#1F1835"/>
</svg>
