<svg width="30" height="30" viewBox="0 0 30 30" fill="none" xmlns="http://www.w3.org/2000/svg">
<path d="M24.75 17C24.8125 16.5625 24.875 16.125 24.875 15.625C24.875 15.125 24.8125 14.6875 24.75 14.25L27.5625 12.25C27.8125 12.0625 27.9375 11.6875 27.75 11.375L25 6.75C24.8125 6.4375 24.5 6.3125 24.1875 6.5L21.0625 7.9375C20.3125 7.375 19.5625 6.9375 18.6875 6.5625L18.375 3.125C18.3125 2.8125 18.0625 2.5625 17.75 2.5625H12.375C12.0625 2.5625 11.75 2.8125 11.75 3.125L11.4375 6.5625C10.5625 6.9375 9.75001 7.375 9.06251 7.9375L5.93751 6.5C5.62501 6.375 5.25001 6.5 5.12501 6.75L2.43751 11.375C2.25001 11.6875 2.37501 12.0625 2.62501 12.25L5.43751 14.25C5.37501 14.6875 5.31251 15.125 5.31251 15.625C5.31251 16.125 5.37501 16.5625 5.43751 17L2.50001 19C2.25001 19.1875 2.12501 19.5625 2.31251 19.875L5.00001 24.5C5.18751 24.8125 5.50001 24.9375 5.81251 24.75L8.93751 23.3125C9.68751 23.875 10.4375 24.3125 11.3125 24.6875L11.625 28.125C11.6875 28.4375 11.9375 28.6875 12.25 28.6875H17.625C17.9375 28.6875 18.25 28.4375 18.25 28.125L18.5625 24.6875C19.4375 24.3125 20.25 23.875 20.9375 23.3125L24.0625 24.75C24.375 24.875 24.75 24.75 24.875 24.5L27.5625 19.875C27.75 19.5625 27.625 19.1875 27.375 19L24.75 17ZM15 21.875C11.5625 21.875 8.75001 19.0625 8.75001 15.625C8.75001 12.1875 11.5625 9.375 15 9.375C18.4375 9.375 21.25 12.1875 21.25 15.625C21.25 19.0625 18.4375 21.875 15 21.875Z" fill="#607D8B"/>
<path d="M15 8.125C10.875 8.125 7.5 11.5 7.5 15.625C7.5 19.75 10.875 23.125 15 23.125C19.125 23.125 22.5 19.75 22.5 15.625C22.5 11.5 19.125 8.125 15 8.125ZM15 18.75C13.25 18.75 11.875 17.375 11.875 15.625C11.875 13.875 13.25 12.5 15 12.5C16.75 12.5 18.125 13.875 18.125 15.625C18.125 17.375 16.75 18.75 15 18.75Z" fill="#455A64"/>
</svg>
