<svg width="29" height="22" viewBox="0 0 29 22" fill="none" xmlns="http://www.w3.org/2000/svg">
<path d="M18.8831 15.1207C17.8219 14.696 17.3981 13.5288 17.3981 13.5288C17.3981 13.5288 16.92 13.7932 16.92 13.0507C16.92 12.3082 17.3981 13.5288 17.8763 10.662C17.8763 10.662 19.2009 10.2898 18.9356 7.21195H18.6169C18.6169 7.21195 19.4137 3.92133 18.6169 2.8057C17.82 1.69195 17.5031 0.949454 15.7509 0.417892C13.9988 -0.113671 14.6372 -0.00773307 13.3631 0.0466419C12.0881 0.101017 11.0269 0.790079 11.0269 1.16227C11.0269 1.16227 10.23 1.21477 9.91312 1.53352C9.59437 1.85227 9.06375 3.33727 9.06375 3.70852C9.06375 4.07977 9.32906 6.57727 9.59438 7.10695L9.27844 7.21383C9.01219 10.2916 10.3378 10.6638 10.3378 10.6638C10.8159 13.5307 11.2941 12.3101 11.2941 13.0526C11.2941 13.7951 10.8159 13.5307 10.8159 13.5307C10.8159 13.5307 10.3922 14.6979 9.33094 15.1226C8.26969 15.5463 2.37844 17.8282 1.89937 18.3063C1.41937 18.7845 1.47375 21.0138 1.47375 21.0138H26.7366C26.7366 21.0138 26.7928 18.7854 26.3128 18.3063C25.8347 17.8282 19.9425 15.5463 18.8813 15.1226L18.8831 15.1207ZM7.1925 14.9595C7.09875 14.7907 7.05375 14.6688 7.05375 14.6688C7.05375 14.6688 6.64875 14.8938 6.64875 14.2638C6.64875 13.6338 7.05375 14.6688 7.45875 12.2388C7.45875 12.2388 8.58375 11.9248 8.35875 9.3157H8.08687C8.08687 9.3157 8.22187 8.76258 8.31 8.06508C8.30605 7.75345 8.31763 7.44181 8.34469 7.13133L8.38031 6.73195C8.36156 6.2707 8.28 5.8507 8.08781 5.58258C7.41281 4.63852 7.14281 4.00758 5.65969 3.55758C4.17469 3.10758 4.71281 3.19758 3.63469 3.24352C2.55469 3.29039 1.65469 3.87352 1.65469 4.19039C1.65469 4.19039 0.979687 4.23445 0.709687 4.50445C0.456562 4.75758 0.04875 5.87508 0 6.27164V6.53414C0.045 7.14727 0.24375 8.83102 0.440625 9.22758L0.1725 9.31758C-0.0525 11.9257 1.0725 12.2407 1.0725 12.2407C1.47563 14.6688 1.88156 13.6357 1.88156 14.2657C1.88156 14.8957 1.47656 14.6688 1.47656 14.6688C1.47656 14.6688 1.1175 15.6607 0.2175 16.0188L0 16.1051V21.012H0.539062C0.510937 19.8138 0.61125 18.2679 1.23844 17.6426C1.57313 17.3098 2.66719 16.7613 7.19438 14.9595H7.1925ZM28.1269 6.46945C28.0894 6.11508 28.0078 5.79914 27.8531 5.58258C27.18 4.63758 26.9091 4.00758 25.425 3.55758C23.9409 3.10758 24.4809 3.19758 23.4 3.24352C22.3219 3.29039 21.4219 3.87352 21.4219 4.19039C21.4219 4.19039 20.7469 4.23445 20.4769 4.50445C20.2238 4.75945 19.8113 5.88445 19.7663 6.27633H19.7972L19.8722 7.1332C19.8909 7.34883 19.8928 7.54102 19.8975 7.73695C19.9819 8.36133 20.0944 9.00258 20.2069 9.22758L19.9388 9.31664C19.7138 11.9248 20.8388 12.2398 20.8388 12.2398C21.2438 14.6679 21.6478 13.6348 21.6478 14.2648C21.6478 14.8948 21.2447 14.6679 21.2447 14.6679C21.2447 14.6679 21.1941 14.802 21.0909 14.9866C25.5628 16.7679 26.6475 17.3116 26.9784 17.6426C27.6066 18.2688 27.7041 19.8138 27.6769 21.0129H28.1269V16.0395L28.08 16.0188C27.18 15.6598 26.82 14.6688 26.82 14.6688C26.82 14.6688 26.4141 14.8938 26.4141 14.2657C26.4141 13.6376 26.82 14.6688 27.2241 12.2407C27.2241 12.2407 27.9778 12.0251 28.1269 10.5157V9.36445C28.1269 9.34758 28.1269 9.33352 28.1241 9.31758H27.8522C27.8522 9.31758 28.0547 8.4832 28.1269 7.57195V6.46945Z" fill="#6840CE"/>
</svg>
